<svg width="1054" height="72" fill="none" xmlns="http://www.w3.org/2000/svg"><mask id="a" maskUnits="userSpaceOnUse" x="-1" y="-1" width="1056" height="74" fill="#000"><path fill="#fff" d="M-1-1h1056v74H-1z"/><path d="M.56 28V.7h16.458l15.171 18.72L47.36.7h17.082V28H52.118V11.971L39.131 28H25.247L12.884 12.751V28H.56ZM95.047 9.28l-5.694 7.02h11.388l-5.694-7.02ZM88.105.7h13.884L124.102 28h-13.884l-3.159-3.9H83.035l-3.16 3.9H65.993L88.105.7Zm65.861 8.58L138.795 28h-13.884L147.024.7h13.884L183.021 28h-13.884L153.966 9.28ZM184.591 28V.7h50.7v7.02h-38.376v3.12h38.376v7.02h-38.376v3.12h38.376V28h-50.7Zm53.816 0V.7h12.324v8.97h27.222V.7h12.324V28h-12.324v-8.97h-27.222V28h-12.324Zm92.826-12.48h-25.506v3.12h25.506c1.092 0 1.716-.585 1.716-1.56 0-.975-.624-1.56-1.716-1.56Zm3.12 12.48h-40.95V.7h12.324v5.46h28.626c6.825 0 10.92 5.46 10.92 10.92S341.178 28 334.353 28Zm13.665 0V.7h12.324v14.976L382.026.7h17.862l-19.773 13.65L399.888 28h-17.862l-10.842-7.488L360.342 28h-12.324Zm81.728-18.72-5.694 7.02h11.388l-5.694-7.02ZM422.804.7h13.884L458.801 28h-13.884l-3.159-3.9h-24.024l-3.159 3.9h-13.884L422.804.7Zm51.227 12.48h25.506v-3.12h-25.506c-1.092 0-1.716.585-1.716 1.56 0 .975.624 1.56 1.716 1.56ZM470.911.7h40.95V28h-12.324v-5.46h-15.99L475.63 28h-15.639l8.307-5.733c-5.226-1.209-8.307-5.928-8.307-10.647 0-5.46 4.095-10.92 10.92-10.92Zm79.785 17.16v3.12h25.506c1.092 0 1.716-.585 1.716-1.56 0-.975-.624-1.56-1.716-1.56h-25.506Zm25.506-10.14h-25.506v3.12h25.506c1.092 0 1.716-.585 1.716-1.56 0-.975-.624-1.56-1.716-1.56Zm4.29 20.28h-42.12V.7h42.12c5.733 0 9.75 2.73 9.75 7.8 0 2.652-1.248 4.641-3.393 5.85 2.145 1.209 3.393 3.198 3.393 5.85 0 5.07-4.017 7.8-9.75 7.8Zm12.495 0V.7h50.7v7.02h-38.376v3.12h38.376v7.02h-38.376v3.12h38.376V28h-50.7Zm66.139-7.02h25.506c1.092 0 1.716-.585 1.716-1.56 0-.975-.624-1.56-1.716-1.56h-25.506v3.12ZM688.922 28h-42.12V.7h50.7v7.02h-38.376v3.12h29.796c5.733 0 9.75 3.51 9.75 8.58s-4.017 8.58-9.75 8.58Zm12.495-9.75v-7.8h17.94v7.8h-17.94Zm71.381-.39V28h-37.05c-7.527 0-13.65-6.123-13.65-13.65S728.221.7 735.748.7h37.05v10.14h-34.515c-2.145 0-3.9 1.365-3.9 3.51 0 2.145 1.755 3.51 3.9 3.51h34.515ZM795.648 28V10.06h-19.734V.7h51.87v9.36h-19.812V28h-12.324ZM843.234.7v8.58c0 .975.624 1.56 1.716 1.56h24.336V.7h12.324v19.5c0 5.226-2.574 7.8-7.8 7.8h-39.78v-7.02h33.696c1.053 0 1.56-.507 1.56-1.56v-1.56H841.83c-6.825 0-10.92-3.12-10.92-8.58V.7h12.324Zm61.273 12.909-2.34 5.031h26.793v-8.58h-18.915c-2.613 0-4.446 1.17-5.538 3.549Zm39.897 17.511H932.08V28h-35.412v3.12h-12.324V18.64h4.368l3.939-8.697C895.498 3.742 900.217.7 907.003.7h34.281v17.94h3.12v12.48ZM999.018.7V28h-12.324V12.4L959.472 28h-12.324V.7h12.324v15.6L986.694.7h12.324Zm16.782 12.48h25.51v-3.12h-25.51c-1.09 0-1.71.585-1.71 1.56 0 .975.62 1.56 1.71 1.56ZM1012.68.7h40.95V28h-12.32v-5.46h-15.99L1017.4 28h-15.64l8.31-5.733c-5.23-1.209-8.31-5.928-8.31-10.647 0-5.46 4.1-10.92 10.92-10.92ZM51.26 60.86V71H14.21C6.683 71 .56 64.877.56 57.35S6.683 43.7 14.21 43.7h37.05v10.14H16.745c-2.145 0-3.9 1.365-3.9 3.51 0 2.145 1.755 3.51 3.9 3.51H51.26Zm38.824 3.12h25.506c1.092 0 1.716-.585 1.716-1.56 0-.975-.624-1.56-1.716-1.56H90.084v3.12ZM119.88 71H77.76V43.7h50.7v7.02H90.084v3.12h29.796c5.733 0 9.75 3.51 9.75 8.58S125.613 71 119.88 71Zm24.965-27.69h28.47c7.527 0 13.65 6.513 13.65 14.04 0 7.527-6.123 14.04-13.65 14.04h-28.47c-7.527 0-13.65-6.513-13.65-14.04 0-7.527 6.123-14.04 13.65-14.04Zm25.935 10.14h-23.4a3.911 3.911 0 0 0-3.9 3.9c0 2.145 1.755 3.9 3.9 3.9h23.4c2.145 0 3.9-1.755 3.9-3.9s-1.755-3.9-3.9-3.9Zm41.724-1.17L197.333 71h-13.884l22.113-27.3h13.884L241.559 71h-13.884l-15.171-18.72Zm68.455 6.24h-25.506v3.12h25.506c1.092 0 1.716-.585 1.716-1.56 0-.975-.624-1.56-1.716-1.56Zm3.12 12.48h-40.95V43.7h12.324v5.46h28.626c6.825 0 10.92 5.46 10.92 10.92S290.904 71 284.079 71Zm39.328-9.36V43.7h12.324v17.94h13.26V43.7h12.324V71h-63.57V43.7h12.324v17.94h13.338Zm53.914-18.33h28.47c7.527 0 13.65 6.513 13.65 14.04 0 7.527-6.123 14.04-13.65 14.04h-28.47c-7.527 0-13.65-6.513-13.65-14.04 0-7.527 6.123-14.04 13.65-14.04Zm25.935 10.14h-23.4a3.911 3.911 0 0 0-3.9 3.9c0 2.145 1.755 3.9 3.9 3.9h23.4c2.145 0 3.9-1.755 3.9-3.9s-1.755-3.9-3.9-3.9Zm70.404-9.75V71h-12.324V55.4L434.114 71H421.79V43.7h12.324v15.6l27.222-15.6h12.324Zm-25.935-8.853c5.148 0 8.814-1.443 12.051-3.51l4.29 6.318c-2.925 1.95-7.878 4.875-16.341 4.875-8.463 0-13.416-2.925-16.341-4.875l4.29-6.318c3.237 2.067 6.903 3.51 12.051 3.51ZM500.171 71V43.7h16.458L531.8 62.42l15.171-18.72h17.082V71h-12.324V54.971L538.742 71h-13.884l-12.363-15.249V71h-12.324Zm66.993 0V43.7h50.7v7.02h-38.376v3.12h38.376v7.02h-38.376v3.12h38.376V71h-50.7Zm93.362 0v-7.02H634.63c-8.307 0-13.65-4.953-13.65-14.04V43.7h12.324v6.24c0 2.535 1.365 3.9 3.9 3.9h23.322V43.7h12.324V71h-12.324Zm35.184 0V53.06h-19.734V43.7h51.87v9.36h-19.812V71H695.71Zm47.351-27.69h28.47c7.527 0 13.65 6.513 13.65 14.04 0 7.527-6.123 14.04-13.65 14.04h-28.47c-7.527 0-13.65-6.513-13.65-14.04 0-7.527 6.123-14.04 13.65-14.04Zm25.935 10.14h-23.4a3.911 3.911 0 0 0-3.9 3.9c0 2.145 1.755 3.9 3.9 3.9h23.4c2.145 0 3.9-1.755 3.9-3.9s-1.755-3.9-3.9-3.9ZM839.4 43.7V71h-12.324V55.4L799.854 71H787.53V43.7h12.324v15.6l27.222-15.6H839.4Zm-25.935-8.853c5.148 0 8.814-1.443 12.051-3.51l4.29 6.318c-2.925 1.95-7.878 4.875-16.341 4.875-8.463 0-13.416-2.925-16.341-4.875l4.29-6.318c3.237 2.067 6.903 3.51 12.051 3.51Z"/></mask><path d="M.56 28h-1v1h1v-1ZM.56.7v-1h-1v1h1Zm16.458 0 .777-.63-.3-.37h-.477v1Zm15.171 18.72-.777.63.777.958.777-.958-.777-.63ZM47.36.7v-1h-.477l-.3.37.777.63Zm17.082 0h1v-1h-1v1Zm0 27.3v1h1v-1h-1Zm-12.324 0h-1v1h1v-1Zm0-16.029h1V9.148l-1.777 2.194.777.629ZM39.131 28v1h.477l.3-.37-.777-.63Zm-13.884 0-.777.63.3.37h.477v-1ZM12.884 12.751l.777-.63-1.777-2.191v2.821h1Zm0 15.249v1h1v-1h-1ZM1.56 28V.7h-2V28h2Zm-1-26.3h16.458v-2H.56v2Zm15.681-.37 15.171 18.72 1.554-1.26L17.795.07 16.24 1.33Zm16.725 18.72 15.17-18.72L46.584.07l-15.17 18.72 1.553 1.26ZM47.36 1.7h17.082v-2H47.36v2Zm16.082-1V28h2V.7h-2Zm1 26.3H52.118v2h12.324v-2Zm-11.324 1V11.971h-2V28h2Zm-1.777-16.659-12.987 16.03 1.554 1.259L52.895 12.6l-1.554-1.258ZM39.131 27H25.247v2h13.884v-2Zm-13.107.37L13.66 12.121l-1.554 1.26L24.47 28.63l1.554-1.26Zm-14.14-14.619V28h2V12.751h-2Zm1 14.249H.56v2h12.324v-2ZM95.047 9.28l.776-.63-.776-.957-.777.957.777.63Zm-5.694 7.02-.777-.63-1.322 1.63h2.099v-1Zm11.388 0v1h2.098l-1.322-1.63-.776.63ZM88.105.7v-1h-.477l-.3.37.777.63Zm13.884 0 .777-.63-.3-.37h-.477v1ZM124.102 28v1h2.097l-1.32-1.63-.777.63Zm-13.884 0-.777.63.3.37h.477v-1Zm-3.159-3.9.777-.63-.3-.37h-.477v1Zm-24.024 0v-1h-.477l-.3.37.777.63Zm-3.16 3.9v1h.478l.3-.37-.777-.63Zm-13.883 0-.777-.63-1.32 1.63h2.097v-1ZM94.27 8.65l-5.694 7.02 1.553 1.26 5.694-7.02-1.553-1.26Zm-4.917 8.65h11.388v-2H89.353v2Zm12.164-1.63-5.694-7.02-1.553 1.26 5.694 7.02 1.553-1.26ZM88.105 1.7h13.884v-2H88.105v2Zm13.107-.37 22.113 27.3 1.554-1.26L102.766.07l-1.554 1.26ZM124.102 27h-13.884v2h13.884v-2Zm-13.107.37-3.159-3.9-1.554 1.26 3.159 3.9 1.554-1.26Zm-3.936-4.27H83.035v2h24.024v-2Zm-24.801.37-3.16 3.9 1.555 1.26 3.159-3.9-1.554-1.26ZM79.876 27H65.992v2h13.884v-2Zm-13.107 1.63 22.113-27.3L87.328.07l-22.113 27.3 1.554 1.26Zm87.197-19.35.776-.63-.776-.958-.777.958.777.63ZM138.795 28v1h.476l.3-.37-.776-.63Zm-13.884 0-.777-.63-1.32 1.63h2.097v-1ZM147.024.7v-1h-.477l-.3.37.777.63Zm13.884 0 .777-.63-.301-.37h-.476v1ZM183.021 28v1h2.096l-1.319-1.63-.777.63Zm-13.884 0-.777.63.3.37h.477v-1ZM153.189 8.65l-15.171 18.72 1.553 1.26 15.171-18.72-1.553-1.26ZM138.795 27h-13.884v2h13.884v-2Zm-13.107 1.63 22.113-27.3-1.554-1.26-22.113 27.3 1.554 1.26ZM147.024 1.7h13.884v-2h-13.884v2Zm13.107-.37 22.113 27.3 1.554-1.26L161.685.07l-1.554 1.26ZM183.021 27h-13.884v2h13.884v-2Zm-13.108.37L154.742 8.65l-1.553 1.26 15.171 18.72 1.553-1.26Zm14.678.63h-1v1h1v-1Zm0-27.3v-1h-1v1h1Zm50.7 0h1v-1h-1v1Zm0 7.02v1h1v-1h-1Zm-38.376 0v-1h-1v1h1Zm0 3.12h-1v1h1v-1Zm38.376 0h1v-1h-1v1Zm0 7.02v1h1v-1h-1Zm-38.376 0v-1h-1v1h1Zm0 3.12h-1v1h1v-1Zm38.376 0h1v-1h-1v1Zm0 7.02v1h1v-1h-1Zm-49.7 0V.7h-2V28h2Zm-1-26.3h50.7v-2h-50.7v2Zm49.7-1v7.02h2V.7h-2Zm1 6.02h-38.376v2h38.376v-2Zm-39.376 1v3.12h2V7.72h-2Zm1 4.12h38.376v-2h-38.376v2Zm37.376-1v7.02h2v-7.02h-2Zm1 6.02h-38.376v2h38.376v-2Zm-39.376 1v3.12h2v-3.12h-2Zm1 4.12h38.376v-2h-38.376v2Zm37.376-1V28h2v-7.02h-2Zm1 6.02h-50.7v2h50.7v-2Zm3.116 1h-1v1h1v-1Zm0-27.3v-1h-1v1h1Zm12.324 0h1v-1h-1v1Zm0 8.97h-1v1h1v-1Zm27.222 0v1h1v-1h-1Zm0-8.97v-1h-1v1h1Zm12.324 0h1v-1h-1v1Zm0 27.3v1h1v-1h-1Zm-12.324 0h-1v1h1v-1Zm0-8.97h1v-1h-1v1Zm-27.222 0v-1h-1v1h1Zm0 8.97v1h1v-1h-1Zm-11.324 0V.7h-2V28h2Zm-1-26.3h12.324v-2h-12.324v2Zm11.324-1v8.97h2V.7h-2Zm1 9.97h27.222v-2h-27.222v2Zm28.222-1V.7h-2v8.97h2Zm-1-7.97h12.324v-2h-12.324v2Zm11.324-1V28h2V.7h-2Zm1 26.3h-12.324v2h12.324v-2Zm-11.324 1v-8.97h-2V28h2Zm-1-9.97h-27.222v2h27.222v-2Zm-28.222 1V28h2v-8.97h-2Zm1 7.97h-12.324v2h12.324v-2Zm54.996-11.48v-1h-1v1h1Zm0 3.12h-1v1h1v-1ZM293.403 28h-1v1h1v-1Zm0-27.3v-1h-1v1h1Zm12.324 0h1v-1h-1v1Zm0 5.46h-1v1h1v-1Zm25.506 8.36h-25.506v2h25.506v-2Zm-26.506 1v3.12h2v-3.12h-2Zm1 4.12h25.506v-2h-25.506v2Zm25.506 0c.717 0 1.415-.193 1.943-.677.54-.495.773-1.175.773-1.883h-2c0 .267-.079.367-.124.409-.058.052-.217.151-.592.151v2Zm2.716-2.56c0-.708-.233-1.388-.773-1.883-.528-.484-1.226-.677-1.943-.677v2c.375 0 .534.1.592.152.045.041.124.14.124.408h2Zm.404 9.92h-40.95v2h40.95v-2Zm-39.95 1V.7h-2V28h2Zm-1-26.3h12.324v-2h-12.324v2Zm11.324-1v5.46h2V.7h-2Zm1 6.46h28.626v-2h-28.626v2Zm28.626 0c6.192 0 9.92 4.929 9.92 9.92h2c0-5.929-4.463-11.92-11.92-11.92v2Zm9.92 9.92c0 4.991-3.728 9.92-9.92 9.92v2c7.457 0 11.92-5.991 11.92-11.92h-2ZM348.018 28h-1v1h1v-1Zm0-27.3v-1h-1v1h1Zm12.324 0h1v-1h-1v1Zm0 14.976h-1v1.906l1.568-1.083-.568-.823ZM382.026.7v-1h-.312l-.256.177.568.823Zm17.862 0 .568.823L403.097-.3h-3.209v1Zm-19.773 13.65-.568-.823-1.192.823 1.192.823.568-.823ZM399.888 28v1h3.209l-2.641-1.823-.568.823Zm-17.862 0-.568.823.256.177h.312v-1Zm-10.842-7.488.568-.823-.568-.392-.568.392.568.823ZM360.342 28v1h.312l.256-.177-.568-.823Zm-11.324 0V.7h-2V28h2Zm-1-26.3h12.324v-2h-12.324v2Zm11.324-1v14.976h2V.7h-2Zm1.568 15.799 21.684-14.976-1.136-1.646-21.684 14.976 1.136 1.646ZM382.026 1.7h17.862v-2h-17.862v2ZM399.32-.123l-19.773 13.65 1.136 1.646 19.773-13.65-1.136-1.646Zm-19.773 15.296 19.773 13.65 1.136-1.646-19.773-13.65-1.136 1.646ZM399.888 27h-17.862v2h17.862v-2Zm-17.294.177-10.842-7.488-1.136 1.646 10.842 7.488 1.136-1.646Zm-11.978-7.488-10.842 7.488 1.136 1.646 10.842-7.488-1.136-1.646ZM360.342 27h-12.324v2h12.324v-2Zm69.404-17.72.776-.63-.776-.957-.777.957.777.63Zm-5.694 7.02-.777-.63-1.322 1.63h2.099v-1Zm11.388 0v1h2.099l-1.323-1.63-.776.63ZM422.804.7v-1h-.477l-.3.37.777.63Zm13.884 0 .777-.63-.3-.37h-.477v1ZM458.801 28v1h2.097l-1.32-1.63-.777.63Zm-13.884 0-.777.63.3.37h.477v-1Zm-3.159-3.9.777-.63-.3-.37h-.477v1Zm-24.024 0v-1h-.477l-.3.37.777.63Zm-3.159 3.9v1h.477l.3-.37-.777-.63Zm-13.884 0-.777-.63-1.32 1.63h2.097v-1Zm28.278-19.35-5.694 7.02 1.553 1.26 5.694-7.02-1.553-1.26Zm-4.917 8.65h11.388v-2h-11.388v2Zm12.164-1.63-5.694-7.02-1.553 1.26 5.694 7.02 1.553-1.26ZM422.804 1.7h13.884v-2h-13.884v2Zm13.107-.37 22.113 27.3 1.554-1.26L437.465.07l-1.554 1.26ZM458.801 27h-13.884v2h13.884v-2Zm-13.107.37-3.159-3.9-1.554 1.26 3.159 3.9 1.554-1.26Zm-3.936-4.27h-24.024v2h24.024v-2Zm-24.801.37-3.159 3.9 1.554 1.26 3.159-3.9-1.554-1.26ZM414.575 27h-13.884v2h13.884v-2Zm-13.107 1.63 22.113-27.3-1.554-1.26-22.113 27.3 1.554 1.26Zm98.069-15.45v1h1v-1h-1Zm0-3.12h1v-1h-1v1ZM511.861.7h1v-1h-1v1Zm0 27.3v1h1v-1h-1Zm-12.324 0h-1v1h1v-1Zm0-5.46h1v-1h-1v1Zm-15.99 0v-1h-.312l-.256.177.568.823ZM475.63 28v1h.311l.256-.177-.567-.823Zm-15.639 0-.568-.823L456.781 29h3.21v-1Zm8.307-5.733.568.823 1.864-1.287-2.207-.51-.225.974Zm5.733-8.087h25.506v-2h-25.506v2Zm26.506-1v-3.12h-2v3.12h2Zm-1-4.12h-25.506v2h25.506v-2Zm-25.506 0c-.717 0-1.416.193-1.944.677-.539.495-.772 1.175-.772 1.883h2c0-.267.078-.367.124-.409.057-.052.217-.151.592-.151v-2Zm-2.716 2.56c0 .708.233 1.388.772 1.883.528.484 1.227.677 1.944.677v-2c-.375 0-.535-.1-.592-.152-.046-.041-.124-.14-.124-.408h-2Zm-.404-9.92h40.95v-2h-40.95v2Zm39.95-1V28h2V.7h-2Zm1 26.3h-12.324v2h12.324v-2Zm-11.324 1v-5.46h-2V28h2Zm-1-6.46h-15.99v2h15.99v-2Zm-16.558.177-7.917 5.46 1.135 1.646 7.917-5.46-1.135-1.646ZM475.63 27h-15.639v2h15.639v-2Zm-15.071 1.823 8.307-5.733-1.136-1.646-8.307 5.733 1.136 1.646Zm7.964-7.53c-4.717-1.092-7.532-5.36-7.532-9.673h-2c0 5.125 3.347 10.295 9.081 11.621l.451-1.948Zm-7.532-9.673c0-4.991 3.727-9.92 9.92-9.92v-2c-7.458 0-11.92 5.991-11.92 11.92h2Zm89.704 6.24v-1h-1v1h1Zm0 3.12h-1v1h1v-1Zm0-13.26v-1h-1v1h1Zm0 3.12h-1v1h1v-1ZM538.372 28h-1v1h1v-1Zm0-27.3v-1h-1v1h1Zm48.477 13.65-.491-.871-1.546.871 1.546.871.491-.871Zm-37.154 3.51v3.12h2v-3.12h-2Zm1 4.12h25.507v-2h-25.507v2Zm25.507 0c.717 0 1.415-.193 1.943-.677.539-.495.773-1.175.773-1.883h-2c0 .267-.079.367-.125.408-.057.053-.217.152-.591.152v2Zm2.716-2.56c0-.708-.234-1.388-.773-1.883-.528-.484-1.226-.677-1.943-.677v2c.374 0 .534.1.591.152.046.041.125.14.125.408h2Zm-2.716-2.56h-25.507v2h25.507v-2Zm0-10.14h-25.507v2h25.507v-2Zm-26.507 1v3.12h2V7.72h-2Zm1 4.12h25.507v-2h-25.507v2Zm25.507 0c.717 0 1.415-.193 1.943-.677.539-.495.773-1.175.773-1.883h-2c0 .267-.079.367-.125.408-.057.053-.217.152-.591.152v2Zm2.716-2.56c0-.708-.234-1.388-.773-1.883-.528-.484-1.226-.677-1.943-.677v2c.374 0 .534.1.591.152.046.041.125.14.125.408h2ZM580.492 27h-42.12v2h42.12v-2Zm-41.12 1V.7h-2V28h2Zm-1-26.3h42.12v-2h-42.12v2Zm42.12 0c2.723 0 4.922.65 6.417 1.793 1.461 1.118 2.333 2.768 2.333 5.007h2c0-2.83-1.138-5.08-3.118-6.596C586.177.414 583.502-.3 580.492-.3v2Zm8.75 6.8c0 2.282-1.046 3.943-2.884 4.979l.982 1.742c2.451-1.382 3.902-3.7 3.902-6.721h-2Zm-2.884 6.721c1.838 1.036 2.884 2.697 2.884 4.979h2c0-3.022-1.451-5.34-3.902-6.721l-.982 1.742Zm2.884 4.979c0 2.24-.872 3.89-2.333 5.007-1.495 1.143-3.694 1.793-6.417 1.793v2c3.01 0 5.685-.715 7.632-2.204 1.98-1.515 3.118-3.765 3.118-6.596h-2Zm3.745 7.8h-1v1h1v-1Zm0-27.3v-1h-1v1h1Zm50.7 0h1v-1h-1v1Zm0 7.02v1h1v-1h-1Zm-38.376 0v-1h-1v1h1Zm0 3.12h-1v1h1v-1Zm38.376 0h1v-1h-1v1Zm0 7.02v1h1v-1h-1Zm-38.376 0v-1h-1v1h1Zm0 3.12h-1v1h1v-1Zm38.376 0h1v-1h-1v1Zm0 7.02v1h1v-1h-1Zm-49.7 0V.7h-2V28h2Zm-1-26.3h50.7v-2h-50.7v2Zm49.7-1v7.02h2V.7h-2Zm1 6.02h-38.376v2h38.376v-2Zm-39.376 1v3.12h2V7.72h-2Zm1 4.12h38.376v-2h-38.376v2Zm37.376-1v7.02h2v-7.02h-2Zm1 6.02h-38.376v2h38.376v-2Zm-39.376 1v3.12h2v-3.12h-2Zm1 4.12h38.376v-2h-38.376v2Zm37.376-1V28h2v-7.02h-2Zm1 6.02h-50.7v2h50.7v-2Zm15.439-6.02h-1v1h1v-1Zm0-3.12v-1h-1v1h1ZM646.802 28h-1v1h1v-1Zm0-27.3v-1h-1v1h1Zm50.7 0h1v-1h-1v1Zm0 7.02v1h1v-1h-1Zm-38.376 0v-1h-1v1h1Zm0 3.12h-1v1h1v-1Zm0 11.14h25.506v-2h-25.506v2Zm25.506 0c.717 0 1.415-.193 1.943-.677.54-.495.773-1.175.773-1.883h-2c0 .267-.079.367-.124.408-.057.053-.217.152-.592.152v2Zm2.716-2.56c0-.708-.233-1.388-.773-1.883-.528-.484-1.226-.677-1.943-.677v2c.375 0 .535.1.592.152.045.041.124.14.124.408h2Zm-2.716-2.56h-25.506v2h25.506v-2Zm-26.506 1v3.12h2v-3.12h-2ZM688.922 27h-42.12v2h42.12v-2Zm-41.12 1V.7h-2V28h2Zm-1-26.3h50.7v-2h-50.7v2Zm49.7-1v7.02h2V.7h-2Zm1 6.02h-38.376v2h38.376v-2Zm-39.376 1v3.12h2V7.72h-2Zm1 4.12h29.796v-2h-29.796v2Zm29.796 0c2.665 0 4.856.814 6.365 2.14 1.5 1.317 2.385 3.186 2.385 5.44h2c0-2.816-1.123-5.237-3.065-6.943-1.932-1.696-4.617-2.637-7.685-2.637v2Zm8.75 7.58c0 2.254-.885 4.123-2.385 5.44-1.509 1.326-3.7 2.14-6.365 2.14v2c3.068 0 5.753-.94 7.685-2.637 1.942-1.706 3.065-4.127 3.065-6.943h-2Zm3.745-1.17h-1v1h1v-1Zm0-7.8v-1h-1v1h1Zm17.94 0h1v-1h-1v1Zm0 7.8v1h1v-1h-1Zm-16.94 0v-7.8h-2v7.8h2Zm-1-6.8h17.94v-2h-17.94v2Zm16.94-1v7.8h2v-7.8h-2Zm1 6.8h-17.94v2h17.94v-2Zm53.441.61h1v-1h-1v1Zm0 10.14v1h1v-1h-1Zm0-27.3h1v-1h-1v1Zm0 10.14v1h1v-1h-1Zm-1 7.02V28h2V17.86h-2Zm1 9.14h-37.05v2h37.05v-2Zm-37.05 0c-6.975 0-12.65-5.675-12.65-12.65h-2c0 8.08 6.571 14.65 14.65 14.65v-2Zm-12.65-12.65c0-6.975 5.675-12.65 12.65-12.65v-2c-8.079 0-14.65 6.57-14.65 14.65h2Zm12.65-12.65h37.05v-2h-37.05v2Zm36.05-1v10.14h2V.7h-2Zm1 9.14h-34.515v2h34.515v-2Zm-34.515 0c-2.553 0-4.9 1.679-4.9 4.51h2c0-1.459 1.163-2.51 2.9-2.51v-2Zm-4.9 4.51c0 2.831 2.347 4.51 4.9 4.51v-2c-1.737 0-2.9-1.051-2.9-2.51h-2Zm4.9 4.51h34.515v-2h-34.515v2ZM795.648 28h-1v1h1v-1Zm0-17.94h1v-1h-1v1Zm-19.734 0h-1v1h1v-1Zm0-9.36v-1h-1v1h1Zm51.87 0h1v-1h-1v1Zm0 9.36v1h1v-1h-1Zm-19.813 0v-1h-1v1h1Zm0 17.94v1h1v-1h-1Zm-11.323 0V10.06h-2V28h2Zm-1-18.94h-19.734v2h19.734v-2Zm-18.734 1V.7h-2v9.36h2Zm-1-8.36h51.87v-2h-51.87v2Zm50.87-1v9.36h2V.7h-2Zm1 8.36h-19.813v2h19.813v-2Zm-20.813 1V28h2V10.06h-2Zm1 16.94h-12.323v2h12.323v-2ZM843.234.7h1v-1h-1v1Zm26.052 10.14v1h1v-1h-1Zm0-10.14v-1h-1v1h1Zm12.324 0h1v-1h-1v1ZM834.03 28h-1v1h1v-1Zm0-7.02v-1h-1v1h1Zm35.256-3.12h1v-1h-1v1ZM830.91.7v-1h-1v1h1Zm11.324 0v8.58h2V.7h-2Zm0 8.58c0 .708.233 1.388.772 1.883.528.484 1.226.677 1.944.677v-2c-.375 0-.535-.1-.592-.152-.046-.041-.124-.14-.124-.408h-2Zm2.716 2.56h24.336v-2H844.95v2Zm25.336-1V.7h-2v10.14h2Zm-1-9.14h12.324v-2h-12.324v2Zm11.324-1v19.5h2V.7h-2Zm0 19.5c0 2.463-.607 4.111-1.648 5.153-1.041 1.04-2.69 1.647-5.152 1.647v2c2.763 0 5.014-.68 6.566-2.233 1.553-1.552 2.234-3.804 2.234-6.567h-2Zm-6.8 6.8h-39.78v2h39.78v-2Zm-38.78 1v-7.02h-2V28h2Zm-1-6.02h33.696v-2H834.03v2Zm33.696 0c.671 0 1.365-.161 1.882-.678.516-.517.678-1.21.678-1.882h-2c0 .186-.023.306-.046.377-.022.066-.042.086-.047.09-.004.005-.025.025-.09.047a1.245 1.245 0 0 1-.377.046v2Zm2.56-2.56v-1.56h-2v1.56h2Zm-1-2.56H841.83v2h27.456v-2Zm-27.456 0c-3.277 0-5.762-.75-7.405-2.031-1.61-1.255-2.515-3.095-2.515-5.549h-2c0 3.006 1.141 5.456 3.286 7.126 2.11 1.645 5.085 2.454 8.634 2.454v-2Zm-9.92-7.58V.7h-2v8.58h2Zm-1-7.58h12.324v-2H830.91v2Zm73.597 11.909.907.422.002-.005-.909-.417Zm-2.34 5.031-.907-.422-.661 1.422h1.568v-1Zm26.793 0v1h1v-1h-1Zm0-8.58h1v-1h-1v1Zm15.444 21.06v1h1v-1h-1Zm-12.324 0h-1v1h1v-1Zm0-3.12h1v-1h-1v1Zm-35.412 0v-1h-1v1h1Zm0 3.12v1h1v-1h-1Zm-12.324 0h-1v1h1v-1Zm0-12.48v-1h-1v1h1Zm4.368 0v1h.645l.266-.587-.911-.413Zm3.939-8.697-.909-.417-.002.004.911.413ZM941.284.7h1v-1h-1v1Zm0 17.94h-1v1h1v-1Zm3.12 0h1v-1h-1v1ZM903.6 13.187l-2.34 5.031 1.814.844 2.34-5.031-1.814-.844Zm-1.433 6.453h26.793v-2h-26.793v2Zm27.793-1v-8.58h-2v8.58h2Zm-1-9.58h-18.915v2h18.915v-2Zm-18.915 0c-1.459 0-2.766.328-3.878 1.04-1.113.712-1.959 1.763-2.569 3.092l1.818.834c.482-1.05 1.098-1.774 1.829-2.241.731-.468 1.646-.725 2.8-.725v-2Zm34.359 21.06H932.08v2h12.324v-2Zm-11.324 1V28h-2v3.12h2Zm-1-4.12h-35.412v2h35.412v-2Zm-36.412 1v3.12h2V28h-2Zm1 2.12h-12.324v2h12.324v-2Zm-11.324 1V18.64h-2v12.48h2Zm-1-11.48h4.368v-2h-4.368v2Zm5.279-.587 3.939-8.697-1.822-.826-3.939 8.697 1.822.826Zm3.937-8.693c1.361-2.964 3.139-5.11 5.332-6.523 2.192-1.412 4.871-2.137 8.111-2.137v-2c-3.546 0-6.619.796-9.194 2.455-2.575 1.66-4.58 4.134-6.067 7.37l1.818.835Zm13.443-8.66h34.281v-2h-34.281v2Zm33.281-1v17.94h2V.7h-2Zm1 18.94h3.12v-2h-3.12v2Zm2.12-1v12.48h2V18.64h-2ZM999.018.7h1.002v-1h-1.002v1Zm0 27.3v1h1.002v-1h-1.002Zm-12.324 0h-1v1h1v-1Zm0-15.6h1v-1.726l-1.497.858.497.868ZM959.472 28v1h.266l.231-.132-.497-.868Zm-12.324 0h-1v1h1v-1Zm0-27.3v-1h-1v1h1Zm12.324 0h1v-1h-1v1Zm0 15.6h-1v1.726l1.497-.858-.497-.868ZM986.694.7v-1h-.266l-.231.132.497.868Zm11.324 0V28h2.002V.7h-2.002Zm1 26.3h-12.324v2h12.324v-2Zm-11.324 1V12.4h-2V28h2Zm-1.497-16.468-27.222 15.6.994 1.736 27.222-15.6-.994-1.736ZM959.472 27h-12.324v2h12.324v-2Zm-11.324 1V.7h-2V28h2Zm-1-26.3h12.324v-2h-12.324v2Zm11.324-1v15.6h2V.7h-2Zm1.497 16.468 27.222-15.6-.994-1.736-27.222 15.6.994 1.736ZM986.694 1.7h12.324v-2h-12.324v2Zm54.616 11.48v1h1v-1h-1Zm0-3.12h1v-1h-1v1ZM1053.63.7h1v-1h-1v1Zm0 27.3v1h1v-1h-1Zm-12.32 0h-1v1h1v-1Zm0-5.46h1v-1h-1v1Zm-15.99 0v-1h-.31l-.26.177.57.823ZM1017.4 28v1h.31l.26-.177-.57-.823Zm-15.64 0-.56-.823L998.554 29h3.206v-1Zm8.31-5.733.57.823 1.86-1.287-2.2-.51-.23.974Zm5.73-8.087h25.51v-2h-25.51v2Zm26.51-1v-3.12h-2v3.12h2Zm-1-4.12h-25.51v2h25.51v-2Zm-25.51 0c-.71 0-1.41.193-1.94.677-.54.495-.77 1.175-.77 1.883h2c0-.267.08-.367.12-.409.06-.052.22-.151.59-.151v-2Zm-2.71 2.56c0 .708.23 1.388.77 1.883.53.484 1.23.677 1.94.677v-2c-.37 0-.53-.1-.59-.152-.04-.041-.12-.14-.12-.408h-2Zm-.41-9.92h40.95v-2h-40.95v2Zm39.95-1V28h2V.7h-2Zm1 26.3h-12.32v2h12.32v-2Zm-11.32 1v-5.46h-2V28h2Zm-1-6.46h-15.99v2h15.99v-2Zm-16.56.177-7.92 5.46 1.14 1.646 7.92-5.46-1.14-1.646ZM1017.4 27h-15.64v2h15.64v-2Zm-15.07 1.823 8.31-5.733-1.14-1.646-8.3 5.733 1.13 1.646Zm7.97-7.53c-4.72-1.092-7.54-5.36-7.54-9.673h-2c0 5.125 3.35 10.295 9.08 11.621l.46-1.948Zm-7.54-9.673c0-4.991 3.73-9.92 9.92-9.92v-2c-7.45 0-11.92 5.991-11.92 11.92h2ZM51.26 60.86h1v-1h-1v1Zm0 10.14v1h1v-1h-1Zm0-27.3h1v-1h-1v1Zm0 10.14v1h1v-1h-1Zm-1 7.02V71h2V60.86h-2Zm1 9.14H14.21v2h37.05v-2Zm-37.05 0C7.235 70 1.56 64.325 1.56 57.35h-2C-.44 65.43 6.13 72 14.21 72v-2ZM1.56 57.35c0-6.975 5.675-12.65 12.65-12.65v-2C6.13 42.7-.44 49.27-.44 57.35h2ZM14.21 44.7h37.05v-2H14.21v2Zm36.05-1v10.14h2V43.7h-2Zm1 9.14H16.745v2H51.26v-2Zm-34.515 0c-2.553 0-4.9 1.679-4.9 4.51h2c0-1.459 1.163-2.51 2.9-2.51v-2Zm-4.9 4.51c0 2.831 2.347 4.51 4.9 4.51v-2c-1.737 0-2.9-1.051-2.9-2.51h-2Zm4.9 4.51H51.26v-2H16.745v2Zm73.34 2.12h-1v1h1v-1Zm0-3.12v-1h-1v1h1ZM77.76 71h-1v1h1v-1Zm0-27.3v-1h-1v1h1Zm50.7 0h1v-1h-1v1Zm0 7.02v1h1v-1h-1Zm-38.376 0v-1h-1v1h1Zm0 3.12h-1v1h1v-1Zm0 11.14h25.506v-2H90.084v2Zm25.506 0c.717 0 1.416-.193 1.943-.677.54-.495.773-1.175.773-1.883h-2c0 .267-.079.367-.124.408-.057.053-.217.152-.592.152v2Zm2.716-2.56c0-.708-.233-1.388-.773-1.883-.527-.484-1.226-.677-1.943-.677v2c.375 0 .535.1.592.151.045.042.124.142.124.409h2Zm-2.716-2.56H90.084v2h25.506v-2Zm-26.506 1v3.12h2v-3.12h-2ZM119.88 70H77.76v2h42.12v-2Zm-41.12 1V43.7h-2V71h2Zm-1-26.3h50.7v-2h-50.7v2Zm49.7-1v7.02h2V43.7h-2Zm1 6.02H90.084v2h38.376v-2Zm-39.376 1v3.12h2v-3.12h-2Zm1 4.12h29.796v-2H90.084v2Zm29.796 0c2.665 0 4.856.814 6.365 2.14 1.5 1.317 2.385 3.186 2.385 5.44h2c0-2.816-1.123-5.237-3.065-6.943-1.932-1.696-4.617-2.637-7.685-2.637v2Zm8.75 7.58c0 2.254-.885 4.123-2.385 5.44-1.509 1.326-3.7 2.14-6.365 2.14v2c3.068 0 5.753-.94 7.685-2.637 1.942-1.706 3.065-4.127 3.065-6.943h-2Zm16.215-18.11h28.47v-2h-28.47v2Zm28.47 0c6.938 0 12.65 6.029 12.65 13.04h2c0-8.043-6.535-15.04-14.65-15.04v2Zm12.65 13.04c0 7.012-5.712 13.04-12.65 13.04v2c8.115 0 14.65-6.998 14.65-15.04h-2Zm-12.65 13.04h-28.47v2h28.47v-2Zm-28.47 0c-6.939 0-12.65-6.028-12.65-13.04h-2c0 8.042 6.534 15.04 14.65 15.04v-2Zm-12.65-13.04c0-7.011 5.711-13.04 12.65-13.04v-2c-8.116 0-14.65 6.997-14.65 15.04h2Zm38.585-4.9h-23.4v2h23.4v-2Zm-23.4 0a4.911 4.911 0 0 0-4.9 4.9h2c0-1.593 1.307-2.9 2.9-2.9v-2Zm-4.9 4.9c0 2.697 2.202 4.9 4.9 4.9v-2a2.911 2.911 0 0 1-2.9-2.9h-2Zm4.9 4.9h23.4v-2h-23.4v2Zm23.4 0c2.697 0 4.9-2.203 4.9-4.9h-2c0 1.593-1.308 2.9-2.9 2.9v2Zm4.9-4.9c0-2.697-2.203-4.9-4.9-4.9v2c1.592 0 2.9 1.307 2.9 2.9h2Zm36.824-5.07.777-.63-.777-.958-.777.958.777.63ZM197.333 71v1h.476l.301-.37-.777-.63Zm-13.884 0-.777-.63-1.32 1.63h2.097v-1Zm22.113-27.3v-1h-.477l-.3.37.777.63Zm13.884 0 .777-.63-.3-.37h-.477v1ZM241.559 71v1h2.097l-1.32-1.63-.777.63Zm-13.884 0-.777.63.3.37h.477v-1Zm-15.948-19.35-15.171 18.72 1.554 1.26 15.171-18.72-1.554-1.26ZM197.333 70h-13.884v2h13.884v-2Zm-13.107 1.63 22.113-27.3-1.554-1.26-22.113 27.3 1.554 1.26Zm21.336-26.93h13.884v-2h-13.884v2Zm13.107-.37 22.113 27.3 1.554-1.26-22.113-27.3-1.554 1.26ZM241.559 70h-13.884v2h13.884v-2Zm-13.107.37-15.171-18.72-1.554 1.26 15.171 18.72 1.554-1.26Zm27.001-11.85v-1h-1v1h1Zm0 3.12h-1v1h1v-1ZM243.129 71h-1v1h1v-1Zm0-27.3v-1h-1v1h1Zm12.324 0h1v-1h-1v1Zm0 5.46h-1v1h1v-1Zm25.506 8.36h-25.506v2h25.506v-2Zm-26.506 1v3.12h2v-3.12h-2Zm1 4.12h25.506v-2h-25.506v2Zm25.506 0c.718 0 1.416-.193 1.944-.677.539-.495.772-1.175.772-1.883h-2c0 .267-.078.367-.124.409-.057.052-.217.151-.592.151v2Zm2.716-2.56c0-.708-.233-1.388-.772-1.883-.528-.484-1.226-.677-1.944-.677v2c.375 0 .535.1.592.151.046.042.124.142.124.409h2Zm.404 9.92h-40.95v2h40.95v-2Zm-39.95 1V43.7h-2V71h2Zm-1-26.3h12.324v-2h-12.324v2Zm11.324-1v5.46h2V43.7h-2Zm1 6.46h28.626v-2h-28.626v2Zm28.626 0c6.193 0 9.92 4.929 9.92 9.92h2c0-5.929-4.462-11.92-11.92-11.92v2Zm9.92 9.92c0 4.991-3.727 9.92-9.92 9.92v2c7.458 0 11.92-5.991 11.92-11.92h-2Zm29.408 1.56v1h1v-1h-1Zm0-17.94v-1h-1v1h1Zm12.324 0h1v-1h-1v1Zm0 17.94h-1v1h1v-1Zm13.26 0v1h1v-1h-1Zm0-17.94v-1h-1v1h1Zm12.324 0h1v-1h-1v1Zm0 27.3v1h1v-1h-1Zm-63.57 0h-1v1h1v-1Zm0-27.3v-1h-1v1h1Zm12.324 0h1v-1h-1v1Zm0 17.94h-1v1h1v-1Zm14.338 0V43.7h-2v17.94h2Zm-1-16.94h12.324v-2h-12.324v2Zm11.324-1v17.94h2V43.7h-2Zm1 18.94h13.26v-2h-13.26v2Zm14.26-1V43.7h-2v17.94h2Zm-1-16.94h12.324v-2h-12.324v2Zm11.324-1V71h2V43.7h-2Zm1 26.3h-63.57v2h63.57v-2Zm-62.57 1V43.7h-2V71h2Zm-1-26.3h12.324v-2h-12.324v2Zm11.324-1v17.94h2V43.7h-2Zm1 18.94h13.338v-2h-13.338v2Zm67.252-18.33h28.47v-2h-28.47v2Zm28.47 0c6.939 0 12.65 6.029 12.65 13.04h2c0-8.043-6.534-15.04-14.65-15.04v2Zm12.65 13.04c0 7.012-5.711 13.04-12.65 13.04v2c8.116 0 14.65-6.998 14.65-15.04h-2Zm-12.65 13.04h-28.47v2h28.47v-2Zm-28.47 0c-6.938 0-12.65-6.028-12.65-13.04h-2c0 8.042 6.535 15.04 14.65 15.04v-2Zm-12.65-13.04c0-7.011 5.712-13.04 12.65-13.04v-2c-8.115 0-14.65 6.997-14.65 15.04h2Zm38.585-4.9h-23.4v2h23.4v-2Zm-23.4 0a4.912 4.912 0 0 0-4.9 4.9h2c0-1.593 1.308-2.9 2.9-2.9v-2Zm-4.9 4.9c0 2.697 2.203 4.9 4.9 4.9v-2a2.912 2.912 0 0 1-2.9-2.9h-2Zm4.9 4.9h23.4v-2h-23.4v2Zm23.4 0c2.698 0 4.9-2.203 4.9-4.9h-2c0 1.593-1.307 2.9-2.9 2.9v2Zm4.9-4.9c0-2.697-2.202-4.9-4.9-4.9v2c1.593 0 2.9 1.307 2.9 2.9h2ZM473.66 43.7h1v-1h-1v1Zm0 27.3v1h1v-1h-1Zm-12.324 0h-1v1h1v-1Zm0-15.6h1v-1.726l-1.497.858.497.868ZM434.114 71v1h.267l.231-.132-.498-.868Zm-12.324 0h-1v1h1v-1Zm0-27.3v-1h-1v1h1Zm12.324 0h1v-1h-1v1Zm0 15.6h-1v1.726l1.498-.858-.498-.868Zm27.222-15.6v-1h-.266l-.231.132.497.868Zm-1.56-12.363.828-.562-.546-.804-.82.523.538.843Zm4.29 6.318.555.832.839-.56-.566-.834-.828.562Zm-32.682 0-.827-.562-.566.835.839.559.554-.832Zm4.29-6.318.539-.843-.82-.523-.546.804.827.562ZM472.66 43.7V71h2V43.7h-2Zm1 26.3h-12.324v2h12.324v-2Zm-11.324 1V55.4h-2V71h2Zm-1.497-16.468-27.222 15.6.995 1.736 27.222-15.6-.995-1.736ZM434.114 70H421.79v2h12.324v-2Zm-11.324 1V43.7h-2V71h2Zm-1-26.3h12.324v-2H421.79v2Zm11.324-1v15.6h2V43.7h-2Zm1.498 16.468 27.222-15.6-.995-1.736-27.222 15.6.995 1.736ZM461.336 44.7h12.324v-2h-12.324v2Zm-13.611-8.853c5.367 0 9.218-1.514 12.59-3.667l-1.077-1.686c-3.102 1.98-6.584 3.353-11.513 3.353v2Zm11.224-3.948 4.29 6.318 1.655-1.124-4.29-6.318-1.655 1.124Zm4.563 4.924c-2.833 1.889-7.593 4.707-15.787 4.707v2c8.733 0 13.879-3.032 16.896-5.043l-1.109-1.664Zm-15.787 4.707c-8.193 0-12.953-2.818-15.786-4.707l-1.109 1.664c3.017 2.011 8.163 5.043 16.895 5.043v-2Zm-15.513-3.313 4.29-6.318-1.655-1.124-4.29 6.318 1.655 1.124Zm2.924-6.037c3.372 2.153 7.222 3.667 12.589 3.667v-2c-4.929 0-8.41-1.372-11.512-3.353l-1.077 1.686ZM500.171 71h-1v1h1v-1Zm0-27.3v-1h-1v1h1Zm16.458 0 .777-.63-.3-.37h-.477v1ZM531.8 62.42l-.777.63.777.958.777-.958-.777-.63Zm15.171-18.72v-1h-.476l-.301.37.777.63Zm17.082 0h1v-1h-1v1Zm0 27.3v1h1v-1h-1Zm-12.324 0h-1v1h1v-1Zm0-16.029h1v-2.823l-1.777 2.194.777.629ZM538.742 71v1h.477l.3-.37-.777-.63Zm-13.884 0-.776.63.3.37h.476v-1Zm-12.363-15.249.777-.63-1.777-2.191v2.821h1Zm0 15.249v1h1v-1h-1Zm-11.324 0V43.7h-2V71h2Zm-1-26.3h16.458v-2h-16.458v2Zm15.681-.37 15.171 18.72 1.554-1.26-15.171-18.72-1.554 1.26Zm16.725 18.72 15.171-18.72-1.554-1.26-15.171 18.72 1.554 1.26Zm14.394-18.35h17.082v-2h-17.082v2Zm16.082-1V71h2V43.7h-2Zm1 26.3h-12.324v2h12.324v-2Zm-11.324 1V54.971h-2V71h2Zm-1.777-16.658L537.965 70.37l1.554 1.258L552.506 55.6l-1.554-1.258ZM538.742 70h-13.884v2h13.884v-2Zm-13.107.37-12.363-15.249-1.553 1.26 12.363 15.249 1.553-1.26Zm-14.14-14.619V71h2V55.751h-2Zm1 14.249h-12.324v2h12.324v-2Zm54.669 1h-1v1h1v-1Zm0-27.3v-1h-1v1h1Zm50.701 0h1v-1h-1v1Zm0 7.02v1h1v-1h-1Zm-38.377 0v-1h-1v1h1Zm0 3.12h-1v1h1v-1Zm38.377 0h1v-1h-1v1Zm0 7.02v1h1v-1h-1Zm-38.377 0v-1h-1v1h1Zm0 3.12h-1v1h1v-1Zm38.377 0h1v-1h-1v1Zm0 7.02v1h1v-1h-1Zm-49.701 0V43.7h-2V71h2Zm-1-26.3h50.701v-2h-50.701v2Zm49.701-1v7.02h2V43.7h-2Zm1 6.02h-38.377v2h38.377v-2Zm-39.377 1v3.12h2v-3.12h-2Zm1 4.12h38.377v-2h-38.377v2Zm37.377-1v7.02h2v-7.02h-2Zm1 6.02h-38.377v2h38.377v-2Zm-39.377 1v3.12h2v-3.12h-2Zm1 4.12h38.377v-2h-38.377v2Zm37.377-1V71h2v-7.02h-2Zm1 6.02h-50.701v2h50.701v-2Zm42.661 1h-1v1h1v-1Zm0-7.02h1v-1h-1v1ZM620.98 43.7v-1h-1v1h1Zm12.324 0h1v-1h-1v1Zm27.222 10.14v1h1v-1h-1Zm0-10.14v-1h-1v1h1Zm12.324 0h1v-1h-1v1Zm0 27.3v1h1v-1h-1Zm-11.324 0v-7.02h-2V71h2Zm-1-8.02H634.63v2h25.896v-2Zm-25.896 0c-3.956 0-7.089-1.176-9.233-3.32-2.143-2.142-3.417-5.373-3.417-9.72h-2c0 4.74 1.397 8.53 4.003 11.135 2.604 2.604 6.295 3.905 10.647 3.905v-2Zm-12.65-13.04V43.7h-2v6.24h2Zm-1-5.24h12.324v-2H620.98v2Zm11.324-1v6.24h2V43.7h-2Zm0 6.24c0 1.44.39 2.706 1.292 3.608.902.902 2.167 1.292 3.608 1.292v-2c-1.095 0-1.78-.292-2.194-.707-.414-.414-.706-1.099-.706-2.193h-2Zm4.9 4.9h23.322v-2h-23.322v2Zm24.322-1V43.7h-2v10.14h2Zm-1-9.14h12.324v-2h-12.324v2Zm11.324-1V71h2V43.7h-2Zm1 26.3h-12.324v2h12.324v-2Zm22.86 1h-1v1h1v-1Zm0-17.94h1v-1h-1v1Zm-19.734 0h-1v1h1v-1Zm0-9.36v-1h-1v1h1Zm51.87 0h1v-1h-1v1Zm0 9.36v1h1v-1h-1Zm-19.812 0v-1h-1v1h1Zm0 17.94v1h1v-1h-1Zm-11.324 0V53.06h-2V71h2Zm-1-18.94h-19.734v2h19.734v-2Zm-18.734 1V43.7h-2v9.36h2Zm-1-8.36h51.87v-2h-51.87v2Zm50.87-1v9.36h2V43.7h-2Zm1 8.36h-19.812v2h19.812v-2Zm-20.812 1V71h2V53.06h-2Zm1 16.94H695.71v2h12.324v-2Zm35.027-25.69h28.47v-2h-28.47v2Zm28.47 0c6.938 0 12.65 6.029 12.65 13.04h2c0-8.043-6.535-15.04-14.65-15.04v2Zm12.65 13.04c0 7.012-5.712 13.04-12.65 13.04v2c8.115 0 14.65-6.998 14.65-15.04h-2Zm-12.65 13.04h-28.47v2h28.47v-2Zm-28.47 0c-6.939 0-12.65-6.028-12.65-13.04h-2c0 8.042 6.534 15.04 14.65 15.04v-2Zm-12.65-13.04c0-7.011 5.711-13.04 12.65-13.04v-2c-8.116 0-14.65 6.997-14.65 15.04h2Zm38.585-4.9h-23.4v2h23.4v-2Zm-23.4 0a4.911 4.911 0 0 0-4.9 4.9h2c0-1.593 1.307-2.9 2.9-2.9v-2Zm-4.9 4.9c0 2.697 2.202 4.9 4.9 4.9v-2a2.911 2.911 0 0 1-2.9-2.9h-2Zm4.9 4.9h23.4v-2h-23.4v2Zm23.4 0c2.697 0 4.9-2.203 4.9-4.9h-2c0 1.593-1.308 2.9-2.9 2.9v2Zm4.9-4.9c0-2.697-2.203-4.9-4.9-4.9v2c1.592 0 2.9 1.307 2.9 2.9h2ZM839.4 43.7h1v-1h-1v1Zm0 27.3v1h1v-1h-1Zm-12.324 0h-1v1h1v-1Zm0-15.6h1v-1.726l-1.498.858.498.868ZM799.854 71v1h.266l.231-.132-.497-.868Zm-12.324 0h-1v1h1v-1Zm0-27.3v-1h-1v1h1Zm12.324 0h1v-1h-1v1Zm0 15.6h-1v1.726l1.497-.858-.497-.868Zm27.222-15.6v-1h-.266l-.232.132.498.868Zm-1.56-12.363.827-.562-.546-.804-.819.523.538.843Zm4.29 6.318.554.832.84-.56-.567-.834-.827.562Zm-32.682 0-.828-.562-.566.835.839.559.555-.832Zm4.29-6.318.538-.843-.819-.523-.547.804.828.562ZM838.4 43.7V71h2V43.7h-2Zm1 26.3h-12.324v2H839.4v-2Zm-11.324 1V55.4h-2V71h2Zm-1.498-16.468-27.221 15.6.994 1.736 27.222-15.6-.995-1.736ZM799.854 70H787.53v2h12.324v-2Zm-11.324 1V43.7h-2V71h2Zm-1-26.3h12.324v-2H787.53v2Zm11.324-1v15.6h2V43.7h-2Zm1.497 16.468 27.222-15.6-.995-1.736-27.221 15.6.994 1.736ZM827.076 44.7H839.4v-2h-12.324v2Zm-13.611-8.853c5.367 0 9.217-1.514 12.589-3.667l-1.076-1.686c-3.102 1.98-6.584 3.353-11.513 3.353v2Zm11.223-3.948 4.29 6.318 1.655-1.124-4.29-6.318-1.655 1.124Zm4.563 4.924c-2.833 1.889-7.593 4.707-15.786 4.707v2c8.732 0 13.879-3.032 16.895-5.043l-1.109-1.664Zm-15.786 4.707c-8.194 0-12.953-2.818-15.787-4.707l-1.109 1.664c3.017 2.011 8.163 5.043 16.896 5.043v-2Zm-15.514-3.313 4.29-6.318-1.655-1.124-4.29 6.318 1.655 1.124Zm2.925-6.037c3.372 2.153 7.222 3.667 12.589 3.667v-2c-4.929 0-8.411-1.372-11.513-3.353l-1.076 1.686Z" fill="#fff" mask="url(#a)"/></svg>