<svg width="581" height="90" fill="none" xmlns="http://www.w3.org/2000/svg"><path d="M437.154 51.2c-17.408 0-27.904-10.24-27.904-24.96S419.746 0 437.154 0H575.65v30.72H453.922c-3.072 0-4.224 2.304-4.224 3.84s1.152 3.84 4.224 3.84h98.944c17.408 0 27.904 10.24 27.904 24.96S570.274 89.6 552.866 89.6H414.37V58.88h121.728c3.072 0 4.224-2.304 4.224-3.84s-1.152-3.84-4.224-3.84h-98.944ZM355.41 30.72h-83.712v10.24h83.712c3.584 0 5.632-1.92 5.632-5.12s-2.048-5.12-5.632-5.12ZM271.698 89.6H231.25V0h134.4c22.4 0 35.84 17.92 35.84 35.84s-13.44 35.84-35.84 35.84h-93.952V89.6Zm-91.198 0V0h40.448v89.6H180.5Zm-115.732 0V30.72H0V0h170.24v30.72h-65.024V89.6H64.768Z" fill="#fff"/></svg>