<svg width="33" height="52" viewBox="0 0 33 52" fill="none" xmlns="http://www.w3.org/2000/svg">
<path d="M22.0462 27.8638H25.7898V44.6848H13.8194C9.01252 44.6848 7.21011 42.8675 7.21011 38.0217V27.8638H10.9537V38.1147C10.9537 40.2583 11.7857 41.1436 13.7269 41.1436H22.0462V27.8638ZM3.60494 3.63438H29.395V48.3658H3.60494V3.63438ZM0 52H33V3.8147e-06H0V52ZM20.1976 14.6775H10.9537V10.8566H20.1976C21.5838 10.8566 22.231 11.6023 22.231 12.7204C22.231 13.8388 21.6763 14.6775 20.1976 14.6775ZM25.9748 12.3011C25.9748 9.50542 24.6346 7.31548 20.7057 7.31548H7.21011V24.1362H10.9537V18.2186H19.5966C21.5379 18.2186 22.0462 18.7778 22.0462 20.7349V24.1362H25.7898V20.129C25.7898 18.1303 25.0865 16.9578 23.5244 16.5589C25.1496 16.0051 25.9748 14.4208 25.9748 12.3011Z" fill="white"/>
</svg>
