<svg width="124" height="194" viewBox="0 0 124 194" fill="none" xmlns="http://www.w3.org/2000/svg">
<path d="M83.6338 153.497V153.997H83.1338H52.0965C48.4102 153.997 45.6566 153.157 43.8398 151.185C42.0322 149.222 41.2504 146.243 41.2504 142.197V104.454H28.2839V141.85C28.2839 150.849 29.9617 156.895 33.7427 160.707C37.5227 164.517 43.5173 166.208 52.4415 166.208H96.6005V104.454H83.6338V153.497ZM13.8339 13.5591V13.0591H14.3339H110.551H111.051V13.5591V180.442V180.942H110.551H14.3339H13.8339V180.442V13.5591ZM41.7504 55.2584H41.2504V54.7584V40.5035V40.0035H41.7504H76.2372C78.9098 40.0035 80.9479 40.7234 82.3184 42.0576C83.6903 43.3932 84.3233 45.2759 84.3233 47.457C84.3233 49.6185 83.7875 51.5843 82.466 53.0119C81.1378 54.4468 79.0901 55.2584 76.2372 55.2584H41.7504ZM41.2504 89.5466V67.9695V67.4695H41.7504H73.9951C77.6257 67.4695 80.1055 67.9824 81.6407 69.5786C83.17 71.1687 83.6338 73.7038 83.6338 77.357V89.5466H96.6005V75.0966C96.6005 71.4195 95.9524 68.5666 94.6363 66.4641C93.3297 64.3768 91.3334 62.979 88.5249 62.2619L86.8968 61.8462L88.4873 61.3042C94.2694 59.3338 97.2907 53.6838 97.2907 45.8924C97.2907 40.749 96.0573 36.2407 93.0906 33.0199C90.1312 29.807 85.3697 27.7924 78.1329 27.7924H28.2839V89.5466H41.2504ZM1.38464 193.5H123.5V0.5H1.38464V193.5Z" stroke="white" stroke-opacity="0.3"/>
</svg>
