<svg width="215" height="33" viewBox="0 0 215 33" fill="none" xmlns="http://www.w3.org/2000/svg">
<path d="M161.397 18.8996C155.005 18.8996 151.151 15.1396 151.151 9.73461C151.151 4.32961 155.005 0.0996094 161.397 0.0996094H212.251V11.3796H167.554C166.426 11.3796 166.003 12.2256 166.003 12.7896C166.003 13.3536 166.426 14.1996 167.554 14.1996H203.885C210.277 14.1996 214.131 17.9596 214.131 23.3646C214.131 28.7696 210.277 32.9996 203.885 32.9996H153.031V21.7196H197.728C198.856 21.7196 199.279 20.8736 199.279 20.3096C199.279 19.7456 198.856 18.8996 197.728 18.8996H161.397Z" fill="white"/>
<path d="M131.382 11.3796H100.644V15.1396H131.382C132.698 15.1396 133.45 14.4346 133.45 13.2596C133.45 12.0846 132.698 11.3796 131.382 11.3796ZM100.644 32.9996H85.7921V0.0996094H135.142C143.367 0.0996094 148.302 6.67961 148.302 13.2596C148.302 19.8396 143.367 26.4196 135.142 26.4196H100.644V32.9996Z" fill="white"/>
<path d="M67.1573 32.9996V0.0996094H82.0094V32.9996H67.1573Z" fill="white"/>
<path d="M24.662 32.9996V11.3796H0.880005V0.0996094H63.39V11.3796H39.514V32.9996H24.662Z" fill="white"/>
</svg>
