<svg width="33" height="52" fill="none" xmlns="http://www.w3.org/2000/svg"><path d="M22.046 27.864h3.744v16.82H13.82c-4.807 0-6.61-1.816-6.61-6.662V27.864h3.744v10.25c0 2.144.832 3.03 2.773 3.03h8.32v-13.28ZM3.605 3.634h25.79v44.732H3.605V3.634ZM0 52h33V0H0v52Zm20.198-37.322h-9.244v-3.821h9.244c1.386 0 2.033.745 2.033 1.863 0 1.119-.555 1.957-2.033 1.957Zm5.777-2.377c0-2.796-1.34-4.986-5.27-4.986H7.21v16.821h3.744V18.22h8.643c1.94 0 2.45.559 2.45 2.516v3.401h3.743V20.13c0-1.999-.703-3.171-2.266-3.57 1.626-.554 2.45-2.138 2.45-4.258Z" fill="#fff"/></svg>