<svg width="124" height="194" fill="none" xmlns="http://www.w3.org/2000/svg"><path d="M83.634 153.497v.5H52.096c-3.686 0-6.44-.84-8.256-2.812-1.808-1.963-2.59-4.942-2.59-8.988v-37.743H28.284v37.396c0 8.999 1.678 15.045 5.459 18.857 3.78 3.81 9.774 5.501 18.698 5.501h44.16v-61.754H83.633v49.043Zm-69.8-139.938v-.5h97.217v167.883H13.834V13.559Zm27.916 41.7h-.5V40.003h34.987c2.673 0 4.71.72 6.081 2.054 1.372 1.335 2.005 3.218 2.005 5.399 0 2.161-.535 4.127-1.857 5.555-1.328 1.435-3.376 2.246-6.229 2.246H41.75Zm-.5 34.288V67.469h32.745c3.63 0 6.11.513 7.646 2.11 1.529 1.59 1.993 4.125 1.993 7.778v12.19H96.6v-14.45c0-3.677-.648-6.53-1.964-8.633-1.306-2.087-3.303-3.485-6.111-4.202l-1.628-.416 1.59-.542c5.782-1.97 8.804-7.62 8.804-15.412 0-5.143-1.234-9.651-4.2-12.872-2.96-3.213-7.721-5.228-14.958-5.228h-49.85v61.755H41.25ZM1.385 193.5H123.5V.5H1.385v193Z" stroke="#fff" stroke-opacity=".3"/></svg>