<svg width="1054" height="72" viewBox="0 0 1054 72" fill="none" xmlns="http://www.w3.org/2000/svg">
<mask id="path-1-outside-1_190_1447" maskUnits="userSpaceOnUse" x="-1" y="-1" width="1056" height="74" fill="black">
<rect fill="white" x="-1" y="-1" width="1056" height="74"/>
<path d="M0.56 28V0.699998H17.018L32.189 19.42L47.36 0.699998H64.442V28H52.118V11.971L39.131 28H25.247L12.884 12.751V28H0.56ZM95.0466 9.28L89.3526 16.3H100.741L95.0466 9.28ZM88.1046 0.699998H101.989L124.102 28H110.218L107.059 24.1H83.0346L79.8756 28H65.9916L88.1046 0.699998ZM153.966 9.28L138.795 28H124.911L147.024 0.699998H160.908L183.021 28H169.137L153.966 9.28ZM184.591 28V0.699998H235.291V7.72H196.915V10.84H235.291V17.86H196.915V20.98H235.291V28H184.591ZM238.407 28V0.699998H250.731V9.67H277.953V0.699998H290.277V28H277.953V19.03H250.731V28H238.407ZM331.233 15.52H305.727V18.64H331.233C332.325 18.64 332.949 18.055 332.949 17.08C332.949 16.105 332.325 15.52 331.233 15.52ZM334.353 28H293.403V0.699998H305.727V6.16H334.353C341.178 6.16 345.273 11.62 345.273 17.08C345.273 22.54 341.178 28 334.353 28ZM348.018 28V0.699998H360.342V15.676L382.026 0.699998H399.888L380.115 14.35L399.888 28H382.026L371.184 20.512L360.342 28H348.018ZM429.746 9.28L424.052 16.3H435.44L429.746 9.28ZM422.804 0.699998H436.688L458.801 28H444.917L441.758 24.1H417.734L414.575 28H400.691L422.804 0.699998ZM474.031 13.18H499.537V10.06H474.031C472.939 10.06 472.315 10.645 472.315 11.62C472.315 12.595 472.939 13.18 474.031 13.18ZM470.911 0.699998H511.861V28H499.537V22.54H483.547L475.63 28H459.991L468.298 22.267C463.072 21.058 459.991 16.339 459.991 11.62C459.991 6.16 464.086 0.699998 470.911 0.699998ZM550.696 17.86V20.98H576.202C577.294 20.98 577.918 20.395 577.918 19.42C577.918 18.445 577.294 17.86 576.202 17.86H550.696ZM576.202 7.72H550.696V10.84H576.202C577.294 10.84 577.918 10.255 577.918 9.28C577.918 8.305 577.294 7.72 576.202 7.72ZM580.492 28H538.372V0.699998H580.492C586.225 0.699998 590.242 3.43 590.242 8.5C590.242 11.152 588.994 13.141 586.849 14.35C588.994 15.559 590.242 17.548 590.242 20.2C590.242 25.27 586.225 28 580.492 28ZM592.987 28V0.699998H643.687V7.72H605.311V10.84H643.687V17.86H605.311V20.98H643.687V28H592.987ZM659.126 20.98H684.632C685.724 20.98 686.348 20.395 686.348 19.42C686.348 18.445 685.724 17.86 684.632 17.86H659.126V20.98ZM688.922 28H646.802V0.699998H697.502V7.72H659.126V10.84H688.922C694.655 10.84 698.672 14.35 698.672 19.42C698.672 24.49 694.655 28 688.922 28ZM701.417 18.25V10.45H719.357V18.25H701.417ZM772.798 17.86V28H735.748C728.221 28 722.098 21.877 722.098 14.35C722.098 6.823 728.221 0.699998 735.748 0.699998H772.798V10.84H738.283C736.138 10.84 734.383 12.205 734.383 14.35C734.383 16.495 736.138 17.86 738.283 17.86H772.798ZM795.648 28V10.06H775.914V0.699998H827.784V10.06H807.972V28H795.648ZM843.234 0.699998V9.28C843.234 10.255 843.858 10.84 844.95 10.84H869.286V0.699998H881.61V20.2C881.61 25.426 879.036 28 873.81 28H834.03V20.98H867.726C868.779 20.98 869.286 20.473 869.286 19.42V17.86H841.83C835.005 17.86 830.91 14.74 830.91 9.28V0.699998H843.234ZM904.507 13.609L902.167 18.64H928.96V10.06H910.045C907.432 10.06 905.599 11.23 904.507 13.609ZM944.404 31.12H932.08V28H896.668V31.12H884.344V18.64H888.712L892.651 9.943C895.498 3.742 900.217 0.699998 907.003 0.699998H941.284V18.64H944.404V31.12ZM999.018 0.699998V28H986.694V12.4L959.472 28H947.148V0.699998H959.472V16.3L986.694 0.699998H999.018ZM1015.8 13.18H1041.31V10.06H1015.8C1014.71 10.06 1014.09 10.645 1014.09 11.62C1014.09 12.595 1014.71 13.18 1015.8 13.18ZM1012.68 0.699998H1053.63V28H1041.31V22.54H1025.32L1017.4 28H1001.76L1010.07 22.267C1004.84 21.058 1001.76 16.339 1001.76 11.62C1001.76 6.16 1005.86 0.699998 1012.68 0.699998ZM51.26 60.86V71H14.21C6.683 71 0.56 64.877 0.56 57.35C0.56 49.823 6.683 43.7 14.21 43.7H51.26V53.84H16.745C14.6 53.84 12.845 55.205 12.845 57.35C12.845 59.495 14.6 60.86 16.745 60.86H51.26ZM90.0842 63.98H115.59C116.682 63.98 117.306 63.395 117.306 62.42C117.306 61.445 116.682 60.86 115.59 60.86H90.0842V63.98ZM119.88 71H77.7602V43.7H128.46V50.72H90.0842V53.84H119.88C125.613 53.84 129.63 57.35 129.63 62.42C129.63 67.49 125.613 71 119.88 71ZM144.845 43.31H173.315C180.842 43.31 186.965 49.823 186.965 57.35C186.965 64.877 180.842 71.39 173.315 71.39H144.845C137.318 71.39 131.195 64.877 131.195 57.35C131.195 49.823 137.318 43.31 144.845 43.31ZM170.78 53.45H147.38C145.235 53.45 143.48 55.205 143.48 57.35C143.48 59.495 145.235 61.25 147.38 61.25H170.78C172.925 61.25 174.68 59.495 174.68 57.35C174.68 55.205 172.925 53.45 170.78 53.45ZM212.504 52.28L197.333 71H183.449L205.562 43.7H219.446L241.559 71H227.675L212.504 52.28ZM280.959 58.52H255.453V61.64H280.959C282.051 61.64 282.675 61.055 282.675 60.08C282.675 59.105 282.051 58.52 280.959 58.52ZM284.079 71H243.129V43.7H255.453V49.16H284.079C290.904 49.16 294.999 54.62 294.999 60.08C294.999 65.54 290.904 71 284.079 71ZM323.407 61.64V43.7H335.731V61.64H348.991V43.7H361.315V71H297.745V43.7H310.069V61.64H323.407ZM377.321 43.31H405.791C413.318 43.31 419.441 49.823 419.441 57.35C419.441 64.877 413.318 71.39 405.791 71.39H377.321C369.794 71.39 363.671 64.877 363.671 57.35C363.671 49.823 369.794 43.31 377.321 43.31ZM403.256 53.45H379.856C377.711 53.45 375.956 55.205 375.956 57.35C375.956 59.495 377.711 61.25 379.856 61.25H403.256C405.401 61.25 407.156 59.495 407.156 57.35C407.156 55.205 405.401 53.45 403.256 53.45ZM473.66 43.7V71H461.336V55.4L434.114 71H421.79V43.7H434.114V59.3L461.336 43.7H473.66ZM447.725 34.847C452.873 34.847 456.539 33.404 459.776 31.337L464.066 37.655C461.141 39.605 456.188 42.53 447.725 42.53C439.262 42.53 434.309 39.605 431.384 37.655L435.674 31.337C438.911 33.404 442.577 34.847 447.725 34.847ZM500.171 71V43.7H516.629L531.8 62.42L546.971 43.7H564.053V71H551.729V54.971L538.742 71H524.858L512.495 55.751V71H500.171ZM567.164 71V43.7H617.864V50.72H579.488V53.84H617.864V60.86H579.488V63.98H617.864V71H567.164ZM660.526 71V63.98H634.63C626.323 63.98 620.98 59.027 620.98 49.94V43.7H633.304V49.94C633.304 52.475 634.669 53.84 637.204 53.84H660.526V43.7H672.85V71H660.526ZM695.71 71V53.06H675.976V43.7H727.846V53.06H708.034V71H695.71ZM743.061 43.31H771.531C779.058 43.31 785.181 49.823 785.181 57.35C785.181 64.877 779.058 71.39 771.531 71.39H743.061C735.534 71.39 729.411 64.877 729.411 57.35C729.411 49.823 735.534 43.31 743.061 43.31ZM768.996 53.45H745.596C743.451 53.45 741.696 55.205 741.696 57.35C741.696 59.495 743.451 61.25 745.596 61.25H768.996C771.141 61.25 772.896 59.495 772.896 57.35C772.896 55.205 771.141 53.45 768.996 53.45ZM839.4 43.7V71H827.076V55.4L799.854 71H787.53V43.7H799.854V59.3L827.076 43.7H839.4ZM813.465 34.847C818.613 34.847 822.279 33.404 825.516 31.337L829.806 37.655C826.881 39.605 821.928 42.53 813.465 42.53C805.002 42.53 800.049 39.605 797.124 37.655L801.414 31.337C804.651 33.404 808.317 34.847 813.465 34.847Z"/>
</mask>
<path d="M0.56 28H-0.44V29H0.56V28ZM0.56 0.699998V-0.300002H-0.44V0.699998H0.56ZM17.018 0.699998L17.7949 0.0703809L17.4947 -0.300002H17.018V0.699998ZM32.189 19.42L31.4121 20.0496L32.189 21.0083L32.9659 20.0496L32.189 19.42ZM47.36 0.699998V-0.300002H46.8833L46.5831 0.0703809L47.36 0.699998ZM64.442 0.699998H65.442V-0.300002H64.442V0.699998ZM64.442 28V29H65.442V28H64.442ZM52.118 28H51.118V29H52.118V28ZM52.118 11.971H53.118V9.14826L51.341 11.3415L52.118 11.971ZM39.131 28V29H39.6078L39.908 28.6295L39.131 28ZM25.247 28L24.4702 28.6298L24.7704 29H25.247V28ZM12.884 12.751L13.6608 12.1212L11.884 9.92968V12.751H12.884ZM12.884 28V29H13.884V28H12.884ZM1.56 28V0.699998H-0.44V28H1.56ZM0.56 1.7H17.018V-0.300002H0.56V1.7ZM16.2411 1.32962L31.4121 20.0496L32.9659 18.7904L17.7949 0.0703809L16.2411 1.32962ZM32.9659 20.0496L48.1369 1.32962L46.5831 0.0703809L31.4121 18.7904L32.9659 20.0496ZM47.36 1.7H64.442V-0.300002H47.36V1.7ZM63.442 0.699998V28H65.442V0.699998H63.442ZM64.442 27H52.118V29H64.442V27ZM53.118 28V11.971H51.118V28H53.118ZM51.341 11.3415L38.354 27.3705L39.908 28.6295L52.895 12.6005L51.341 11.3415ZM39.131 27H25.247V29H39.131V27ZM26.0238 27.3702L13.6608 12.1212L12.1072 13.3808L24.4702 28.6298L26.0238 27.3702ZM11.884 12.751V28H13.884V12.751H11.884ZM12.884 27H0.56V29H12.884V27ZM95.0466 9.28L95.8233 8.65006L95.0466 7.69255L94.27 8.65006L95.0466 9.28ZM89.3526 16.3L88.576 15.6701L87.2539 17.3H89.3526V16.3ZM100.741 16.3V17.3H102.839L101.517 15.6701L100.741 16.3ZM88.1046 0.699998V-0.300002H87.6277L87.3276 0.0705764L88.1046 0.699998ZM101.989 0.699998L102.766 0.0705764L102.466 -0.300002H101.989V0.699998ZM124.102 28V29H126.199L124.879 27.3706L124.102 28ZM110.218 28L109.441 28.6294L109.741 29H110.218V28ZM107.059 24.1L107.836 23.4706L107.536 23.1H107.059V24.1ZM83.0346 24.1V23.1H82.5577L82.2576 23.4706L83.0346 24.1ZM79.8756 28V29H80.3525L80.6527 28.6294L79.8756 28ZM65.9916 28L65.2146 27.3706L63.8947 29H65.9916V28ZM94.27 8.65006L88.576 15.6701L90.1293 16.9299L95.8233 9.90994L94.27 8.65006ZM89.3526 17.3H100.741V15.3H89.3526V17.3ZM101.517 15.6701L95.8233 8.65006L94.27 9.90994L99.964 16.9299L101.517 15.6701ZM88.1046 1.7H101.989V-0.300002H88.1046V1.7ZM101.212 1.32942L123.325 28.6294L124.879 27.3706L102.766 0.0705764L101.212 1.32942ZM124.102 27H110.218V29H124.102V27ZM110.995 27.3706L107.836 23.4706L106.282 24.7294L109.441 28.6294L110.995 27.3706ZM107.059 23.1H83.0346V25.1H107.059V23.1ZM82.2576 23.4706L79.0986 27.3706L80.6527 28.6294L83.8117 24.7294L82.2576 23.4706ZM79.8756 27H65.9916V29H79.8756V27ZM66.7687 28.6294L88.8817 1.32942L87.3276 0.0705764L65.2146 27.3706L66.7687 28.6294ZM153.966 9.28L154.742 8.65038L153.966 7.69173L153.189 8.65038L153.966 9.28ZM138.795 28V29H139.271L139.571 28.6296L138.795 28ZM124.911 28L124.134 27.3706L122.814 29H124.911V28ZM147.024 0.699998V-0.300002H146.547L146.247 0.0705764L147.024 0.699998ZM160.908 0.699998L161.685 0.0705764L161.384 -0.300002H160.908V0.699998ZM183.021 28V29H185.117L183.798 27.3706L183.021 28ZM169.137 28L168.36 28.6296L168.66 29H169.137V28ZM153.189 8.65038L138.018 27.3704L139.571 28.6296L154.742 9.90962L153.189 8.65038ZM138.795 27H124.911V29H138.795V27ZM125.688 28.6294L147.801 1.32942L146.247 0.0705764L124.134 27.3706L125.688 28.6294ZM147.024 1.7H160.908V-0.300002H147.024V1.7ZM160.131 1.32942L182.244 28.6294L183.798 27.3706L161.685 0.0705764L160.131 1.32942ZM183.021 27H169.137V29H183.021V27ZM169.913 27.3704L154.742 8.65038L153.189 9.90962L168.36 28.6296L169.913 27.3704ZM184.591 28H183.591V29H184.591V28ZM184.591 0.699998V-0.300002H183.591V0.699998H184.591ZM235.291 0.699998H236.291V-0.300002H235.291V0.699998ZM235.291 7.72V8.72H236.291V7.72H235.291ZM196.915 7.72V6.72H195.915V7.72H196.915ZM196.915 10.84H195.915V11.84H196.915V10.84ZM235.291 10.84H236.291V9.84H235.291V10.84ZM235.291 17.86V18.86H236.291V17.86H235.291ZM196.915 17.86V16.86H195.915V17.86H196.915ZM196.915 20.98H195.915V21.98H196.915V20.98ZM235.291 20.98H236.291V19.98H235.291V20.98ZM235.291 28V29H236.291V28H235.291ZM185.591 28V0.699998H183.591V28H185.591ZM184.591 1.7H235.291V-0.300002H184.591V1.7ZM234.291 0.699998V7.72H236.291V0.699998H234.291ZM235.291 6.72H196.915V8.72H235.291V6.72ZM195.915 7.72V10.84H197.915V7.72H195.915ZM196.915 11.84H235.291V9.84H196.915V11.84ZM234.291 10.84V17.86H236.291V10.84H234.291ZM235.291 16.86H196.915V18.86H235.291V16.86ZM195.915 17.86V20.98H197.915V17.86H195.915ZM196.915 21.98H235.291V19.98H196.915V21.98ZM234.291 20.98V28H236.291V20.98H234.291ZM235.291 27H184.591V29H235.291V27ZM238.407 28H237.407V29H238.407V28ZM238.407 0.699998V-0.300002H237.407V0.699998H238.407ZM250.731 0.699998H251.731V-0.300002H250.731V0.699998ZM250.731 9.67H249.731V10.67H250.731V9.67ZM277.953 9.67V10.67H278.953V9.67H277.953ZM277.953 0.699998V-0.300002H276.953V0.699998H277.953ZM290.277 0.699998H291.277V-0.300002H290.277V0.699998ZM290.277 28V29H291.277V28H290.277ZM277.953 28H276.953V29H277.953V28ZM277.953 19.03H278.953V18.03H277.953V19.03ZM250.731 19.03V18.03H249.731V19.03H250.731ZM250.731 28V29H251.731V28H250.731ZM239.407 28V0.699998H237.407V28H239.407ZM238.407 1.7H250.731V-0.300002H238.407V1.7ZM249.731 0.699998V9.67H251.731V0.699998H249.731ZM250.731 10.67H277.953V8.67H250.731V10.67ZM278.953 9.67V0.699998H276.953V9.67H278.953ZM277.953 1.7H290.277V-0.300002H277.953V1.7ZM289.277 0.699998V28H291.277V0.699998H289.277ZM290.277 27H277.953V29H290.277V27ZM278.953 28V19.03H276.953V28H278.953ZM277.953 18.03H250.731V20.03H277.953V18.03ZM249.731 19.03V28H251.731V19.03H249.731ZM250.731 27H238.407V29H250.731V27ZM305.727 15.52V14.52H304.727V15.52H305.727ZM305.727 18.64H304.727V19.64H305.727V18.64ZM293.403 28H292.403V29H293.403V28ZM293.403 0.699998V-0.300002H292.403V0.699998H293.403ZM305.727 0.699998H306.727V-0.300002H305.727V0.699998ZM305.727 6.16H304.727V7.16H305.727V6.16ZM331.233 14.52H305.727V16.52H331.233V14.52ZM304.727 15.52V18.64H306.727V15.52H304.727ZM305.727 19.64H331.233V17.64H305.727V19.64ZM331.233 19.64C331.95 19.64 332.648 19.4467 333.176 18.9628C333.716 18.4682 333.949 17.7879 333.949 17.08H331.949C331.949 17.3471 331.87 17.4468 331.825 17.4885C331.767 17.5408 331.608 17.64 331.233 17.64V19.64ZM333.949 17.08C333.949 16.3721 333.716 15.6918 333.176 15.1972C332.648 14.7133 331.95 14.52 331.233 14.52V16.52C331.608 16.52 331.767 16.6192 331.825 16.6715C331.87 16.7132 331.949 16.8129 331.949 17.08H333.949ZM334.353 27H293.403V29H334.353V27ZM294.403 28V0.699998H292.403V28H294.403ZM293.403 1.7H305.727V-0.300002H293.403V1.7ZM304.727 0.699998V6.16H306.727V0.699998H304.727ZM305.727 7.16H334.353V5.16H305.727V7.16ZM334.353 7.16C340.545 7.16 344.273 12.0886 344.273 17.08H346.273C346.273 11.1514 341.81 5.16 334.353 5.16V7.16ZM344.273 17.08C344.273 22.0714 340.545 27 334.353 27V29C341.81 29 346.273 23.0086 346.273 17.08H344.273ZM348.018 28H347.018V29H348.018V28ZM348.018 0.699998V-0.300002H347.018V0.699998H348.018ZM360.342 0.699998H361.342V-0.300002H360.342V0.699998ZM360.342 15.676H359.342V17.582L360.91 16.4988L360.342 15.676ZM382.026 0.699998V-0.300002H381.714L381.458 -0.122833L382.026 0.699998ZM399.888 0.699998L400.456 1.52295L403.097 -0.300002H399.888V0.699998ZM380.115 14.35L379.547 13.527L378.355 14.35L379.547 15.173L380.115 14.35ZM399.888 28V29H403.097L400.456 27.177L399.888 28ZM382.026 28L381.458 28.8228L381.714 29H382.026V28ZM371.184 20.512L371.752 19.6892L371.184 19.2967L370.616 19.6892L371.184 20.512ZM360.342 28V29H360.654L360.91 28.8228L360.342 28ZM349.018 28V0.699998H347.018V28H349.018ZM348.018 1.7H360.342V-0.300002H348.018V1.7ZM359.342 0.699998V15.676H361.342V0.699998H359.342ZM360.91 16.4988L382.594 1.52283L381.458 -0.122833L359.774 14.8532L360.91 16.4988ZM382.026 1.7H399.888V-0.300002H382.026V1.7ZM399.32 -0.122953L379.547 13.527L380.683 15.173L400.456 1.52295L399.32 -0.122953ZM379.547 15.173L399.32 28.823L400.456 27.177L380.683 13.527L379.547 15.173ZM399.888 27H382.026V29H399.888V27ZM382.594 27.1772L371.752 19.6892L370.616 21.3348L381.458 28.8228L382.594 27.1772ZM370.616 19.6892L359.774 27.1772L360.91 28.8228L371.752 21.3348L370.616 19.6892ZM360.342 27H348.018V29H360.342V27ZM429.746 9.28L430.522 8.65006L429.746 7.69255L428.969 8.65006L429.746 9.28ZM424.052 16.3L423.275 15.6701L421.953 17.3H424.052V16.3ZM435.44 16.3V17.3H437.539L436.216 15.6701L435.44 16.3ZM422.804 0.699998V-0.300002H422.327L422.027 0.0705764L422.804 0.699998ZM436.688 0.699998L437.465 0.0705764L437.165 -0.300002H436.688V0.699998ZM458.801 28V29H460.898L459.578 27.3706L458.801 28ZM444.917 28L444.14 28.6294L444.44 29H444.917V28ZM441.758 24.1L442.535 23.4706L442.235 23.1H441.758V24.1ZM417.734 24.1V23.1H417.257L416.957 23.4706L417.734 24.1ZM414.575 28V29H415.052L415.352 28.6294L414.575 28ZM400.691 28L399.914 27.3706L398.594 29H400.691V28ZM428.969 8.65006L423.275 15.6701L424.828 16.9299L430.522 9.90994L428.969 8.65006ZM424.052 17.3H435.44V15.3H424.052V17.3ZM436.216 15.6701L430.522 8.65006L428.969 9.90994L434.663 16.9299L436.216 15.6701ZM422.804 1.7H436.688V-0.300002H422.804V1.7ZM435.911 1.32942L458.024 28.6294L459.578 27.3706L437.465 0.0705764L435.911 1.32942ZM458.801 27H444.917V29H458.801V27ZM445.694 27.3706L442.535 23.4706L440.981 24.7294L444.14 28.6294L445.694 27.3706ZM441.758 23.1H417.734V25.1H441.758V23.1ZM416.957 23.4706L413.798 27.3706L415.352 28.6294L418.511 24.7294L416.957 23.4706ZM414.575 27H400.691V29H414.575V27ZM401.468 28.6294L423.581 1.32942L422.027 0.0705764L399.914 27.3706L401.468 28.6294ZM499.537 13.18V14.18H500.537V13.18H499.537ZM499.537 10.06H500.537V9.06H499.537V10.06ZM511.861 0.699998H512.861V-0.300002H511.861V0.699998ZM511.861 28V29H512.861V28H511.861ZM499.537 28H498.537V29H499.537V28ZM499.537 22.54H500.537V21.54H499.537V22.54ZM483.547 22.54V21.54H483.235L482.979 21.7168L483.547 22.54ZM475.63 28V29H475.941L476.197 28.8232L475.63 28ZM459.991 28L459.423 27.177L456.781 29H459.991V28ZM468.298 22.267L468.866 23.09L470.73 21.8033L468.523 21.2927L468.298 22.267ZM474.031 14.18H499.537V12.18H474.031V14.18ZM500.537 13.18V10.06H498.537V13.18H500.537ZM499.537 9.06H474.031V11.06H499.537V9.06ZM474.031 9.06C473.314 9.06 472.615 9.2533 472.087 9.73722C471.548 10.2318 471.315 10.9121 471.315 11.62H473.315C473.315 11.3529 473.393 11.2532 473.439 11.2115C473.496 11.1592 473.656 11.06 474.031 11.06V9.06ZM471.315 11.62C471.315 12.3279 471.548 13.0082 472.087 13.5028C472.615 13.9867 473.314 14.18 474.031 14.18V12.18C473.656 12.18 473.496 12.0808 473.439 12.0285C473.393 11.9868 473.315 11.8871 473.315 11.62H471.315ZM470.911 1.7H511.861V-0.300002H470.911V1.7ZM510.861 0.699998V28H512.861V0.699998H510.861ZM511.861 27H499.537V29H511.861V27ZM500.537 28V22.54H498.537V28H500.537ZM499.537 21.54H483.547V23.54H499.537V21.54ZM482.979 21.7168L475.062 27.1768L476.197 28.8232L484.114 23.3632L482.979 21.7168ZM475.63 27H459.991V29H475.63V27ZM460.559 28.823L468.866 23.09L467.73 21.444L459.423 27.177L460.559 28.823ZM468.523 21.2927C463.806 20.2014 460.991 15.9326 460.991 11.62H458.991C458.991 16.7454 462.338 21.9146 468.072 23.2413L468.523 21.2927ZM460.991 11.62C460.991 6.6286 464.718 1.7 470.911 1.7V-0.300002C463.453 -0.300002 458.991 5.6914 458.991 11.62H460.991ZM550.695 17.86V16.86H549.695V17.86H550.695ZM550.695 20.98H549.695V21.98H550.695V20.98ZM550.695 7.72V6.72H549.695V7.72H550.695ZM550.695 10.84H549.695V11.84H550.695V10.84ZM538.372 28H537.372V29H538.372V28ZM538.372 0.699998V-0.300002H537.372V0.699998H538.372ZM586.849 14.35L586.358 13.4788L584.812 14.35L586.358 15.2212L586.849 14.35ZM549.695 17.86V20.98H551.695V17.86H549.695ZM550.695 21.98H576.202V19.98H550.695V21.98ZM576.202 21.98C576.919 21.98 577.617 21.7867 578.145 21.3028C578.684 20.8082 578.918 20.1279 578.918 19.42H576.918C576.918 19.6871 576.839 19.7868 576.793 19.8285C576.736 19.8808 576.576 19.98 576.202 19.98V21.98ZM578.918 19.42C578.918 18.7121 578.684 18.0318 578.145 17.5372C577.617 17.0533 576.919 16.86 576.202 16.86V18.86C576.576 18.86 576.736 18.9592 576.793 19.0115C576.839 19.0532 576.918 19.1529 576.918 19.42H578.918ZM576.202 16.86H550.695V18.86H576.202V16.86ZM576.202 6.72H550.695V8.72H576.202V6.72ZM549.695 7.72V10.84H551.695V7.72H549.695ZM550.695 11.84H576.202V9.84H550.695V11.84ZM576.202 11.84C576.919 11.84 577.617 11.6467 578.145 11.1628C578.684 10.6682 578.918 9.98785 578.918 9.28H576.918C576.918 9.54715 576.839 9.64679 576.793 9.68847C576.736 9.7408 576.576 9.84 576.202 9.84V11.84ZM578.918 9.28C578.918 8.57215 578.684 7.89179 578.145 7.39722C577.617 6.9133 576.919 6.72 576.202 6.72V8.72C576.576 8.72 576.736 8.81919 576.793 8.87153C576.839 8.91321 576.918 9.01285 576.918 9.28H578.918ZM580.492 27H538.372V29H580.492V27ZM539.372 28V0.699998H537.372V28H539.372ZM538.372 1.7H580.492V-0.300002H538.372V1.7ZM580.492 1.7C583.215 1.7 585.414 2.35005 586.909 3.49304C588.37 4.61072 589.242 6.26068 589.242 8.5H591.242C591.242 5.66932 590.104 3.41928 588.124 1.90445C586.177 0.414942 583.502 -0.300002 580.492 -0.300002V1.7ZM589.242 8.5C589.242 10.7822 588.196 12.4427 586.358 13.4788L587.34 15.2212C589.791 13.8393 591.242 11.5218 591.242 8.5H589.242ZM586.358 15.2212C588.196 16.2573 589.242 17.9178 589.242 20.2H591.242C591.242 17.1782 589.791 14.8607 587.34 13.4788L586.358 15.2212ZM589.242 20.2C589.242 22.4393 588.37 24.0893 586.909 25.207C585.414 26.3499 583.215 27 580.492 27V29C583.502 29 586.177 28.2851 588.124 26.7955C590.104 25.2807 591.242 23.0307 591.242 20.2H589.242ZM592.987 28H591.987V29H592.987V28ZM592.987 0.699998V-0.300002H591.987V0.699998H592.987ZM643.687 0.699998H644.687V-0.300002H643.687V0.699998ZM643.687 7.72V8.72H644.687V7.72H643.687ZM605.311 7.72V6.72H604.311V7.72H605.311ZM605.311 10.84H604.311V11.84H605.311V10.84ZM643.687 10.84H644.687V9.84H643.687V10.84ZM643.687 17.86V18.86H644.687V17.86H643.687ZM605.311 17.86V16.86H604.311V17.86H605.311ZM605.311 20.98H604.311V21.98H605.311V20.98ZM643.687 20.98H644.687V19.98H643.687V20.98ZM643.687 28V29H644.687V28H643.687ZM593.987 28V0.699998H591.987V28H593.987ZM592.987 1.7H643.687V-0.300002H592.987V1.7ZM642.687 0.699998V7.72H644.687V0.699998H642.687ZM643.687 6.72H605.311V8.72H643.687V6.72ZM604.311 7.72V10.84H606.311V7.72H604.311ZM605.311 11.84H643.687V9.84H605.311V11.84ZM642.687 10.84V17.86H644.687V10.84H642.687ZM643.687 16.86H605.311V18.86H643.687V16.86ZM604.311 17.86V20.98H606.311V17.86H604.311ZM605.311 21.98H643.687V19.98H605.311V21.98ZM642.687 20.98V28H644.687V20.98H642.687ZM643.687 27H592.987V29H643.687V27ZM659.126 20.98H658.126V21.98H659.126V20.98ZM659.126 17.86V16.86H658.126V17.86H659.126ZM646.802 28H645.802V29H646.802V28ZM646.802 0.699998V-0.300002H645.802V0.699998H646.802ZM697.502 0.699998H698.502V-0.300002H697.502V0.699998ZM697.502 7.72V8.72H698.502V7.72H697.502ZM659.126 7.72V6.72H658.126V7.72H659.126ZM659.126 10.84H658.126V11.84H659.126V10.84ZM659.126 21.98H684.632V19.98H659.126V21.98ZM684.632 21.98C685.349 21.98 686.047 21.7867 686.575 21.3028C687.115 20.8082 687.348 20.1279 687.348 19.42H685.348C685.348 19.6871 685.269 19.7868 685.224 19.8285C685.167 19.8808 685.007 19.98 684.632 19.98V21.98ZM687.348 19.42C687.348 18.7121 687.115 18.0318 686.575 17.5372C686.047 17.0533 685.349 16.86 684.632 16.86V18.86C685.007 18.86 685.167 18.9592 685.224 19.0115C685.269 19.0532 685.348 19.1529 685.348 19.42H687.348ZM684.632 16.86H659.126V18.86H684.632V16.86ZM658.126 17.86V20.98H660.126V17.86H658.126ZM688.922 27H646.802V29H688.922V27ZM647.802 28V0.699998H645.802V28H647.802ZM646.802 1.7H697.502V-0.300002H646.802V1.7ZM696.502 0.699998V7.72H698.502V0.699998H696.502ZM697.502 6.72H659.126V8.72H697.502V6.72ZM658.126 7.72V10.84H660.126V7.72H658.126ZM659.126 11.84H688.922V9.84H659.126V11.84ZM688.922 11.84C691.587 11.84 693.778 12.6544 695.287 13.9801C696.787 15.2973 697.672 17.1662 697.672 19.42H699.672C699.672 16.6038 698.549 14.1827 696.607 12.4774C694.675 10.7806 691.99 9.84 688.922 9.84V11.84ZM697.672 19.42C697.672 21.6738 696.787 23.5427 695.287 24.8599C693.778 26.1856 691.587 27 688.922 27V29C691.99 29 694.675 28.0594 696.607 26.3626C698.549 24.6573 699.672 22.2362 699.672 19.42H697.672ZM701.417 18.25H700.417V19.25H701.417V18.25ZM701.417 10.45V9.45H700.417V10.45H701.417ZM719.357 10.45H720.357V9.45H719.357V10.45ZM719.357 18.25V19.25H720.357V18.25H719.357ZM702.417 18.25V10.45H700.417V18.25H702.417ZM701.417 11.45H719.357V9.45H701.417V11.45ZM718.357 10.45V18.25H720.357V10.45H718.357ZM719.357 17.25H701.417V19.25H719.357V17.25ZM772.798 17.86H773.798V16.86H772.798V17.86ZM772.798 28V29H773.798V28H772.798ZM772.798 0.699998H773.798V-0.300002H772.798V0.699998ZM772.798 10.84V11.84H773.798V10.84H772.798ZM771.798 17.86V28H773.798V17.86H771.798ZM772.798 27H735.748V29H772.798V27ZM735.748 27C728.773 27 723.098 21.3247 723.098 14.35H721.098C721.098 22.4293 727.669 29 735.748 29V27ZM723.098 14.35C723.098 7.37528 728.773 1.7 735.748 1.7V-0.300002C727.669 -0.300002 721.098 6.27071 721.098 14.35H723.098ZM735.748 1.7H772.798V-0.300002H735.748V1.7ZM771.798 0.699998V10.84H773.798V0.699998H771.798ZM772.798 9.84H738.283V11.84H772.798V9.84ZM738.283 9.84C735.73 9.84 733.383 11.5186 733.383 14.35H735.383C735.383 12.8914 736.546 11.84 738.283 11.84V9.84ZM733.383 14.35C733.383 17.1814 735.73 18.86 738.283 18.86V16.86C736.546 16.86 735.383 15.8086 735.383 14.35H733.383ZM738.283 18.86H772.798V16.86H738.283V18.86ZM795.648 28H794.648V29H795.648V28ZM795.648 10.06H796.648V9.06H795.648V10.06ZM775.914 10.06H774.914V11.06H775.914V10.06ZM775.914 0.699998V-0.300002H774.914V0.699998H775.914ZM827.784 0.699998H828.784V-0.300002H827.784V0.699998ZM827.784 10.06V11.06H828.784V10.06H827.784ZM807.971 10.06V9.06H806.971V10.06H807.971ZM807.971 28V29H808.971V28H807.971ZM796.648 28V10.06H794.648V28H796.648ZM795.648 9.06H775.914V11.06H795.648V9.06ZM776.914 10.06V0.699998H774.914V10.06H776.914ZM775.914 1.7H827.784V-0.300002H775.914V1.7ZM826.784 0.699998V10.06H828.784V0.699998H826.784ZM827.784 9.06H807.971V11.06H827.784V9.06ZM806.971 10.06V28H808.971V10.06H806.971ZM807.971 27H795.648V29H807.971V27ZM843.234 0.699998H844.234V-0.300002H843.234V0.699998ZM869.286 10.84V11.84H870.286V10.84H869.286ZM869.286 0.699998V-0.300002H868.286V0.699998H869.286ZM881.61 0.699998H882.61V-0.300002H881.61V0.699998ZM834.03 28H833.03V29H834.03V28ZM834.03 20.98V19.98H833.03V20.98H834.03ZM869.286 17.86H870.286V16.86H869.286V17.86ZM830.91 0.699998V-0.300002H829.91V0.699998H830.91ZM842.234 0.699998V9.28H844.234V0.699998H842.234ZM842.234 9.28C842.234 9.98785 842.467 10.6682 843.006 11.1628C843.534 11.6467 844.232 11.84 844.95 11.84V9.84C844.575 9.84 844.415 9.7408 844.358 9.68847C844.312 9.64679 844.234 9.54714 844.234 9.28H842.234ZM844.95 11.84H869.286V9.84H844.95V11.84ZM870.286 10.84V0.699998H868.286V10.84H870.286ZM869.286 1.7H881.61V-0.300002H869.286V1.7ZM880.61 0.699998V20.2H882.61V0.699998H880.61ZM880.61 20.2C880.61 22.6627 880.003 24.3115 878.962 25.3526C877.921 26.3938 876.272 27 873.81 27V29C876.573 29 878.824 28.3192 880.376 26.7669C881.929 25.2145 882.61 22.9633 882.61 20.2H880.61ZM873.81 27H834.03V29H873.81V27ZM835.03 28V20.98H833.03V28H835.03ZM834.03 21.98H867.726V19.98H834.03V21.98ZM867.726 21.98C868.397 21.98 869.091 21.8187 869.608 21.302C870.124 20.7852 870.286 20.0911 870.286 19.42H868.286C868.286 19.6065 868.263 19.726 868.24 19.7971C868.218 19.8628 868.198 19.8833 868.193 19.8878C868.189 19.8922 868.168 19.9124 868.103 19.9339C868.032 19.9571 867.912 19.98 867.726 19.98V21.98ZM870.286 19.42V17.86H868.286V19.42H870.286ZM869.286 16.86H841.83V18.86H869.286V16.86ZM841.83 16.86C838.553 16.86 836.068 16.1091 834.425 14.8287C832.815 13.5745 831.91 11.7337 831.91 9.28H829.91C829.91 12.2863 831.051 14.7355 833.196 16.4063C835.306 18.0508 838.281 18.86 841.83 18.86V16.86ZM831.91 9.28V0.699998H829.91V9.28H831.91ZM830.91 1.7H843.234V-0.300002H830.91V1.7ZM904.507 13.609L905.414 14.0307L905.416 14.0262L904.507 13.609ZM902.167 18.64L901.26 18.2183L900.599 19.64H902.167V18.64ZM928.96 18.64V19.64H929.96V18.64H928.96ZM928.96 10.06H929.96V9.06H928.96V10.06ZM944.404 31.12V32.12H945.404V31.12H944.404ZM932.08 31.12H931.08V32.12H932.08V31.12ZM932.08 28H933.08V27H932.08V28ZM896.668 28V27H895.668V28H896.668ZM896.668 31.12V32.12H897.668V31.12H896.668ZM884.344 31.12H883.344V32.12H884.344V31.12ZM884.344 18.64V17.64H883.344V18.64H884.344ZM888.712 18.64V19.64H889.357L889.623 19.0526L888.712 18.64ZM892.651 9.943L891.742 9.52575L891.74 9.53043L892.651 9.943ZM941.284 0.699998H942.284V-0.300002H941.284V0.699998ZM941.284 18.64H940.284V19.64H941.284V18.64ZM944.404 18.64H945.404V17.64H944.404V18.64ZM903.6 13.1873L901.26 18.2183L903.074 19.0617L905.414 14.0307L903.6 13.1873ZM902.167 19.64H928.96V17.64H902.167V19.64ZM929.96 18.64V10.06H927.96V18.64H929.96ZM928.96 9.06H910.045V11.06H928.96V9.06ZM910.045 9.06C908.586 9.06 907.279 9.38821 906.167 10.1002C905.054 10.8123 904.208 11.863 903.598 13.1918L905.416 14.0262C905.898 12.976 906.514 12.2522 907.245 11.7846C907.976 11.3168 908.891 11.06 910.045 11.06V9.06ZM944.404 30.12H932.08V32.12H944.404V30.12ZM933.08 31.12V28H931.08V31.12H933.08ZM932.08 27H896.668V29H932.08V27ZM895.668 28V31.12H897.668V28H895.668ZM896.668 30.12H884.344V32.12H896.668V30.12ZM885.344 31.12V18.64H883.344V31.12H885.344ZM884.344 19.64H888.712V17.64H884.344V19.64ZM889.623 19.0526L893.562 10.3556L891.74 9.53043L887.801 18.2274L889.623 19.0526ZM893.56 10.3602C894.921 7.39638 896.699 5.24932 898.892 3.8368C901.084 2.42456 903.763 1.7 907.003 1.7V-0.300002C903.457 -0.300002 900.384 0.496438 897.809 2.15545C895.234 3.81417 893.229 6.28862 891.742 9.52575L893.56 10.3602ZM907.003 1.7H941.284V-0.300002H907.003V1.7ZM940.284 0.699998V18.64H942.284V0.699998H940.284ZM941.284 19.64H944.404V17.64H941.284V19.64ZM943.404 18.64V31.12H945.404V18.64H943.404ZM999.018 0.699998H1000.02V-0.300002H999.018V0.699998ZM999.018 28V29H1000.02V28H999.018ZM986.694 28H985.694V29H986.694V28ZM986.694 12.4H987.694V10.6744L986.197 11.5324L986.694 12.4ZM959.472 28V29H959.738L959.969 28.8676L959.472 28ZM947.148 28H946.148V29H947.148V28ZM947.148 0.699998V-0.300002H946.148V0.699998H947.148ZM959.472 0.699998H960.472V-0.300002H959.472V0.699998ZM959.472 16.3H958.472V18.0256L959.969 17.1676L959.472 16.3ZM986.694 0.699998V-0.300002H986.428L986.197 -0.167632L986.694 0.699998ZM998.018 0.699998V28H1000.02V0.699998H998.018ZM999.018 27H986.694V29H999.018V27ZM987.694 28V12.4H985.694V28H987.694ZM986.197 11.5324L958.975 27.1324L959.969 28.8676L987.191 13.2676L986.197 11.5324ZM959.472 27H947.148V29H959.472V27ZM948.148 28V0.699998H946.148V28H948.148ZM947.148 1.7H959.472V-0.300002H947.148V1.7ZM958.472 0.699998V16.3H960.472V0.699998H958.472ZM959.969 17.1676L987.191 1.56763L986.197 -0.167632L958.975 15.4324L959.969 17.1676ZM986.694 1.7H999.018V-0.300002H986.694V1.7ZM1041.31 13.18V14.18H1042.31V13.18H1041.31ZM1041.31 10.06H1042.31V9.06H1041.31V10.06ZM1053.63 0.699998H1054.63V-0.300002H1053.63V0.699998ZM1053.63 28V29H1054.63V28H1053.63ZM1041.31 28H1040.31V29H1041.31V28ZM1041.31 22.54H1042.31V21.54H1041.31V22.54ZM1025.32 22.54V21.54H1025.01L1024.75 21.7168L1025.32 22.54ZM1017.4 28V29H1017.71L1017.97 28.8232L1017.4 28ZM1001.76 28L1001.2 27.177L998.554 29H1001.76V28ZM1010.07 22.267L1010.64 23.09L1012.5 21.8033L1010.3 21.2927L1010.07 22.267ZM1015.8 14.18H1041.31V12.18H1015.8V14.18ZM1042.31 13.18V10.06H1040.31V13.18H1042.31ZM1041.31 9.06H1015.8V11.06H1041.31V9.06ZM1015.8 9.06C1015.09 9.06 1014.39 9.2533 1013.86 9.73722C1013.32 10.2318 1013.09 10.9121 1013.09 11.62H1015.09C1015.09 11.3529 1015.17 11.2532 1015.21 11.2115C1015.27 11.1592 1015.43 11.06 1015.8 11.06V9.06ZM1013.09 11.62C1013.09 12.3279 1013.32 13.0082 1013.86 13.5028C1014.39 13.9867 1015.09 14.18 1015.8 14.18V12.18C1015.43 12.18 1015.27 12.0808 1015.21 12.0285C1015.17 11.9868 1015.09 11.8871 1015.09 11.62H1013.09ZM1012.68 1.7H1053.63V-0.300002H1012.68V1.7ZM1052.63 0.699998V28H1054.63V0.699998H1052.63ZM1053.63 27H1041.31V29H1053.63V27ZM1042.31 28V22.54H1040.31V28H1042.31ZM1041.31 21.54H1025.32V23.54H1041.31V21.54ZM1024.75 21.7168L1016.83 27.1768L1017.97 28.8232L1025.89 23.3632L1024.75 21.7168ZM1017.4 27H1001.76V29H1017.4V27ZM1002.33 28.823L1010.64 23.09L1009.5 21.444L1001.2 27.177L1002.33 28.823ZM1010.3 21.2927C1005.58 20.2014 1002.76 15.9326 1002.76 11.62H1000.76C1000.76 16.7454 1004.11 21.9146 1009.84 23.2413L1010.3 21.2927ZM1002.76 11.62C1002.76 6.6286 1006.49 1.7 1012.68 1.7V-0.300002C1005.23 -0.300002 1000.76 5.6914 1000.76 11.62H1002.76ZM51.26 60.86H52.26V59.86H51.26V60.86ZM51.26 71V72H52.26V71H51.26ZM51.26 43.7H52.26V42.7H51.26V43.7ZM51.26 53.84V54.84H52.26V53.84H51.26ZM50.26 60.86V71H52.26V60.86H50.26ZM51.26 70H14.21V72H51.26V70ZM14.21 70C7.23528 70 1.56 64.3247 1.56 57.35H-0.44C-0.44 65.4293 6.13072 72 14.21 72V70ZM1.56 57.35C1.56 50.3753 7.23528 44.7 14.21 44.7V42.7C6.13072 42.7 -0.44 49.2707 -0.44 57.35H1.56ZM14.21 44.7H51.26V42.7H14.21V44.7ZM50.26 43.7V53.84H52.26V43.7H50.26ZM51.26 52.84H16.745V54.84H51.26V52.84ZM16.745 52.84C14.1922 52.84 11.845 54.5186 11.845 57.35H13.845C13.845 55.8914 15.0078 54.84 16.745 54.84V52.84ZM11.845 57.35C11.845 60.1814 14.1922 61.86 16.745 61.86V59.86C15.0078 59.86 13.845 58.8086 13.845 57.35H11.845ZM16.745 61.86H51.26V59.86H16.745V61.86ZM90.0842 63.98H89.0842V64.98H90.0842V63.98ZM90.0842 60.86V59.86H89.0842V60.86H90.0842ZM77.7602 71H76.7602V72H77.7602V71ZM77.7602 43.7V42.7H76.7602V43.7H77.7602ZM128.46 43.7H129.46V42.7H128.46V43.7ZM128.46 50.72V51.72H129.46V50.72H128.46ZM90.0842 50.72V49.72H89.0842V50.72H90.0842ZM90.0842 53.84H89.0842V54.84H90.0842V53.84ZM90.0842 64.98H115.59V62.98H90.0842V64.98ZM115.59 64.98C116.307 64.98 117.006 64.7867 117.533 64.3028C118.073 63.8082 118.306 63.1279 118.306 62.42H116.306C116.306 62.6871 116.227 62.7868 116.182 62.8285C116.125 62.8808 115.965 62.98 115.59 62.98V64.98ZM118.306 62.42C118.306 61.7122 118.073 61.0318 117.533 60.5372C117.006 60.0533 116.307 59.86 115.59 59.86V61.86C115.965 61.86 116.125 61.9592 116.182 62.0115C116.227 62.0532 116.306 62.1529 116.306 62.42H118.306ZM115.59 59.86H90.0842V61.86H115.59V59.86ZM89.0842 60.86V63.98H91.0842V60.86H89.0842ZM119.88 70H77.7602V72H119.88V70ZM78.7602 71V43.7H76.7602V71H78.7602ZM77.7602 44.7H128.46V42.7H77.7602V44.7ZM127.46 43.7V50.72H129.46V43.7H127.46ZM128.46 49.72H90.0842V51.72H128.46V49.72ZM89.0842 50.72V53.84H91.0842V50.72H89.0842ZM90.0842 54.84H119.88V52.84H90.0842V54.84ZM119.88 54.84C122.545 54.84 124.736 55.6544 126.245 56.9801C127.745 58.2973 128.63 60.1662 128.63 62.42H130.63C130.63 59.6038 129.507 57.1827 127.565 55.4774C125.633 53.7806 122.948 52.84 119.88 52.84V54.84ZM128.63 62.42C128.63 64.6738 127.745 66.5427 126.245 67.8599C124.736 69.1856 122.545 70 119.88 70V72C122.948 72 125.633 71.0594 127.565 69.3626C129.507 67.6573 130.63 65.2362 130.63 62.42H128.63ZM144.845 44.31H173.315V42.31H144.845V44.31ZM173.315 44.31C180.253 44.31 185.965 50.3385 185.965 57.35H187.965C187.965 49.3075 181.43 42.31 173.315 42.31V44.31ZM185.965 57.35C185.965 64.3615 180.253 70.39 173.315 70.39V72.39C181.43 72.39 187.965 65.3925 187.965 57.35H185.965ZM173.315 70.39H144.845V72.39H173.315V70.39ZM144.845 70.39C137.906 70.39 132.195 64.3615 132.195 57.35H130.195C130.195 65.3925 136.729 72.39 144.845 72.39V70.39ZM132.195 57.35C132.195 50.3385 137.906 44.31 144.845 44.31V42.31C136.729 42.31 130.195 49.3075 130.195 57.35H132.195ZM170.78 52.45H147.38V54.45H170.78V52.45ZM147.38 52.45C144.682 52.45 142.48 54.6527 142.48 57.35H144.48C144.48 55.7573 145.787 54.45 147.38 54.45V52.45ZM142.48 57.35C142.48 60.0473 144.682 62.25 147.38 62.25V60.25C145.787 60.25 144.48 58.9427 144.48 57.35H142.48ZM147.38 62.25H170.78V60.25H147.38V62.25ZM170.78 62.25C173.477 62.25 175.68 60.0473 175.68 57.35H173.68C173.68 58.9427 172.372 60.25 170.78 60.25V62.25ZM175.68 57.35C175.68 54.6527 173.477 52.45 170.78 52.45V54.45C172.372 54.45 173.68 55.7573 173.68 57.35H175.68ZM212.504 52.28L213.281 51.6504L212.504 50.6917L211.727 51.6504L212.504 52.28ZM197.333 71V72H197.809L198.11 71.6296L197.333 71ZM183.449 71L182.672 70.3706L181.352 72H183.449V71ZM205.562 43.7V42.7H205.085L204.785 43.0706L205.562 43.7ZM219.446 43.7L220.223 43.0706L219.923 42.7H219.446V43.7ZM241.559 71V72H243.656L242.336 70.3706L241.559 71ZM227.675 71L226.898 71.6296L227.198 72H227.675V71ZM211.727 51.6504L196.556 70.3704L198.11 71.6296L213.281 52.9096L211.727 51.6504ZM197.333 70H183.449V72H197.333V70ZM184.226 71.6294L206.339 44.3294L204.785 43.0706L182.672 70.3706L184.226 71.6294ZM205.562 44.7H219.446V42.7H205.562V44.7ZM218.669 44.3294L240.782 71.6294L242.336 70.3706L220.223 43.0706L218.669 44.3294ZM241.559 70H227.675V72H241.559V70ZM228.452 70.3704L213.281 51.6504L211.727 52.9096L226.898 71.6296L228.452 70.3704ZM255.453 58.52V57.52H254.453V58.52H255.453ZM255.453 61.64H254.453V62.64H255.453V61.64ZM243.129 71H242.129V72H243.129V71ZM243.129 43.7V42.7H242.129V43.7H243.129ZM255.453 43.7H256.453V42.7H255.453V43.7ZM255.453 49.16H254.453V50.16H255.453V49.16ZM280.959 57.52H255.453V59.52H280.959V57.52ZM254.453 58.52V61.64H256.453V58.52H254.453ZM255.453 62.64H280.959V60.64H255.453V62.64ZM280.959 62.64C281.677 62.64 282.375 62.4467 282.903 61.9628C283.442 61.4682 283.675 60.7879 283.675 60.08H281.675C281.675 60.3471 281.597 60.4468 281.551 60.4885C281.494 60.5408 281.334 60.64 280.959 60.64V62.64ZM283.675 60.08C283.675 59.3721 283.442 58.6918 282.903 58.1972C282.375 57.7133 281.677 57.52 280.959 57.52V59.52C281.334 59.52 281.494 59.6192 281.551 59.6715C281.597 59.7132 281.675 59.8129 281.675 60.08H283.675ZM284.079 70H243.129V72H284.079V70ZM244.129 71V43.7H242.129V71H244.129ZM243.129 44.7H255.453V42.7H243.129V44.7ZM254.453 43.7V49.16H256.453V43.7H254.453ZM255.453 50.16H284.079V48.16H255.453V50.16ZM284.079 50.16C290.272 50.16 293.999 55.0886 293.999 60.08H295.999C295.999 54.1514 291.537 48.16 284.079 48.16V50.16ZM293.999 60.08C293.999 65.0714 290.272 70 284.079 70V72C291.537 72 295.999 66.0086 295.999 60.08H293.999ZM323.407 61.64V62.64H324.407V61.64H323.407ZM323.407 43.7V42.7H322.407V43.7H323.407ZM335.731 43.7H336.731V42.7H335.731V43.7ZM335.731 61.64H334.731V62.64H335.731V61.64ZM348.991 61.64V62.64H349.991V61.64H348.991ZM348.991 43.7V42.7H347.991V43.7H348.991ZM361.315 43.7H362.315V42.7H361.315V43.7ZM361.315 71V72H362.315V71H361.315ZM297.745 71H296.745V72H297.745V71ZM297.745 43.7V42.7H296.745V43.7H297.745ZM310.069 43.7H311.069V42.7H310.069V43.7ZM310.069 61.64H309.069V62.64H310.069V61.64ZM324.407 61.64V43.7H322.407V61.64H324.407ZM323.407 44.7H335.731V42.7H323.407V44.7ZM334.731 43.7V61.64H336.731V43.7H334.731ZM335.731 62.64H348.991V60.64H335.731V62.64ZM349.991 61.64V43.7H347.991V61.64H349.991ZM348.991 44.7H361.315V42.7H348.991V44.7ZM360.315 43.7V71H362.315V43.7H360.315ZM361.315 70H297.745V72H361.315V70ZM298.745 71V43.7H296.745V71H298.745ZM297.745 44.7H310.069V42.7H297.745V44.7ZM309.069 43.7V61.64H311.069V43.7H309.069ZM310.069 62.64H323.407V60.64H310.069V62.64ZM377.321 44.31H405.791V42.31H377.321V44.31ZM405.791 44.31C412.73 44.31 418.441 50.3385 418.441 57.35H420.441C420.441 49.3075 413.907 42.31 405.791 42.31V44.31ZM418.441 57.35C418.441 64.3615 412.73 70.39 405.791 70.39V72.39C413.907 72.39 420.441 65.3925 420.441 57.35H418.441ZM405.791 70.39H377.321V72.39H405.791V70.39ZM377.321 70.39C370.383 70.39 364.671 64.3615 364.671 57.35H362.671C362.671 65.3925 369.206 72.39 377.321 72.39V70.39ZM364.671 57.35C364.671 50.3385 370.383 44.31 377.321 44.31V42.31C369.206 42.31 362.671 49.3075 362.671 57.35H364.671ZM403.256 52.45H379.856V54.45H403.256V52.45ZM379.856 52.45C377.159 52.45 374.956 54.6527 374.956 57.35H376.956C376.956 55.7573 378.264 54.45 379.856 54.45V52.45ZM374.956 57.35C374.956 60.0473 377.159 62.25 379.856 62.25V60.25C378.264 60.25 376.956 58.9427 376.956 57.35H374.956ZM379.856 62.25H403.256V60.25H379.856V62.25ZM403.256 62.25C405.954 62.25 408.156 60.0473 408.156 57.35H406.156C406.156 58.9427 404.849 60.25 403.256 60.25V62.25ZM408.156 57.35C408.156 54.6527 405.954 52.45 403.256 52.45V54.45C404.849 54.45 406.156 55.7573 406.156 57.35H408.156ZM473.66 43.7H474.66V42.7H473.66V43.7ZM473.66 71V72H474.66V71H473.66ZM461.336 71H460.336V72H461.336V71ZM461.336 55.4H462.336V53.6744L460.839 54.5324L461.336 55.4ZM434.114 71V72H434.381L434.612 71.8676L434.114 71ZM421.79 71H420.79V72H421.79V71ZM421.79 43.7V42.7H420.79V43.7H421.79ZM434.114 43.7H435.114V42.7H434.114V43.7ZM434.114 59.3H433.114V61.0256L434.612 60.1676L434.114 59.3ZM461.336 43.7V42.7H461.07L460.839 42.8324L461.336 43.7ZM459.776 31.337L460.604 30.7752L460.058 29.971L459.238 30.4942L459.776 31.337ZM464.066 37.655L464.621 38.487L465.46 37.9276L464.894 37.0932L464.066 37.655ZM431.384 37.655L430.557 37.0932L429.991 37.9276L430.83 38.487L431.384 37.655ZM435.674 31.337L436.213 30.4942L435.393 29.971L434.847 30.7752L435.674 31.337ZM472.66 43.7V71H474.66V43.7H472.66ZM473.66 70H461.336V72H473.66V70ZM462.336 71V55.4H460.336V71H462.336ZM460.839 54.5324L433.617 70.1324L434.612 71.8676L461.834 56.2676L460.839 54.5324ZM434.114 70H421.79V72H434.114V70ZM422.79 71V43.7H420.79V71H422.79ZM421.79 44.7H434.114V42.7H421.79V44.7ZM433.114 43.7V59.3H435.114V43.7H433.114ZM434.612 60.1676L461.834 44.5676L460.839 42.8324L433.617 58.4324L434.612 60.1676ZM461.336 44.7H473.66V42.7H461.336V44.7ZM447.725 35.847C453.092 35.847 456.943 34.3331 460.315 32.1798L459.238 30.4942C456.136 32.4749 452.654 33.847 447.725 33.847V35.847ZM458.949 31.8987L463.239 38.2168L464.894 37.0932L460.604 30.7752L458.949 31.8987ZM463.512 36.8229C460.679 38.7117 455.919 41.53 447.725 41.53V43.53C456.458 43.53 461.604 40.4983 464.621 38.487L463.512 36.8229ZM447.725 41.53C439.532 41.53 434.772 38.7117 431.939 36.8229L430.83 38.487C433.847 40.4983 438.993 43.53 447.725 43.53V41.53ZM432.212 38.2168L436.502 31.8987L434.847 30.7752L430.557 37.0932L432.212 38.2168ZM435.136 32.1798C438.508 34.3331 442.358 35.847 447.725 35.847V33.847C442.796 33.847 439.315 32.4749 436.213 30.4942L435.136 32.1798ZM500.171 71H499.171V72H500.171V71ZM500.171 43.7V42.7H499.171V43.7H500.171ZM516.629 43.7L517.406 43.0704L517.106 42.7H516.629V43.7ZM531.8 62.42L531.023 63.0496L531.8 64.0083L532.577 63.0496L531.8 62.42ZM546.971 43.7V42.7H546.495L546.194 43.0704L546.971 43.7ZM564.053 43.7H565.053V42.7H564.053V43.7ZM564.053 71V72H565.053V71H564.053ZM551.729 71H550.729V72H551.729V71ZM551.729 54.971H552.729V52.1483L550.952 54.3415L551.729 54.971ZM538.742 71V72H539.219L539.519 71.6295L538.742 71ZM524.858 71L524.082 71.6298L524.382 72H524.858V71ZM512.495 55.751L513.272 55.1212L511.495 52.9297V55.751H512.495ZM512.495 71V72H513.495V71H512.495ZM501.171 71V43.7H499.171V71H501.171ZM500.171 44.7H516.629V42.7H500.171V44.7ZM515.852 44.3296L531.023 63.0496L532.577 61.7904L517.406 43.0704L515.852 44.3296ZM532.577 63.0496L547.748 44.3296L546.194 43.0704L531.023 61.7904L532.577 63.0496ZM546.971 44.7H564.053V42.7H546.971V44.7ZM563.053 43.7V71H565.053V43.7H563.053ZM564.053 70H551.729V72H564.053V70ZM552.729 71V54.971H550.729V71H552.729ZM550.952 54.3415L537.965 70.3705L539.519 71.6295L552.506 55.6005L550.952 54.3415ZM538.742 70H524.858V72H538.742V70ZM525.635 70.3702L513.272 55.1212L511.719 56.3808L524.082 71.6298L525.635 70.3702ZM511.495 55.751V71H513.495V55.751H511.495ZM512.495 70H500.171V72H512.495V70ZM567.164 71H566.164V72H567.164V71ZM567.164 43.7V42.7H566.164V43.7H567.164ZM617.865 43.7H618.865V42.7H617.865V43.7ZM617.865 50.72V51.72H618.865V50.72H617.865ZM579.488 50.72V49.72H578.488V50.72H579.488ZM579.488 53.84H578.488V54.84H579.488V53.84ZM617.865 53.84H618.865V52.84H617.865V53.84ZM617.865 60.86V61.86H618.865V60.86H617.865ZM579.488 60.86V59.86H578.488V60.86H579.488ZM579.488 63.98H578.488V64.98H579.488V63.98ZM617.865 63.98H618.865V62.98H617.865V63.98ZM617.865 71V72H618.865V71H617.865ZM568.164 71V43.7H566.164V71H568.164ZM567.164 44.7H617.865V42.7H567.164V44.7ZM616.865 43.7V50.72H618.865V43.7H616.865ZM617.865 49.72H579.488V51.72H617.865V49.72ZM578.488 50.72V53.84H580.488V50.72H578.488ZM579.488 54.84H617.865V52.84H579.488V54.84ZM616.865 53.84V60.86H618.865V53.84H616.865ZM617.865 59.86H579.488V61.86H617.865V59.86ZM578.488 60.86V63.98H580.488V60.86H578.488ZM579.488 64.98H617.865V62.98H579.488V64.98ZM616.865 63.98V71H618.865V63.98H616.865ZM617.865 70H567.164V72H617.865V70ZM660.526 71H659.526V72H660.526V71ZM660.526 63.98H661.526V62.98H660.526V63.98ZM620.98 43.7V42.7H619.98V43.7H620.98ZM633.304 43.7H634.304V42.7H633.304V43.7ZM660.526 53.84V54.84H661.526V53.84H660.526ZM660.526 43.7V42.7H659.526V43.7H660.526ZM672.85 43.7H673.85V42.7H672.85V43.7ZM672.85 71V72H673.85V71H672.85ZM661.526 71V63.98H659.526V71H661.526ZM660.526 62.98H634.63V64.98H660.526V62.98ZM634.63 62.98C630.674 62.98 627.541 61.8044 625.397 59.6605C623.254 57.5177 621.98 54.2873 621.98 49.94H619.98C619.98 54.6797 621.377 58.4693 623.983 61.0747C626.587 63.6791 630.278 64.98 634.63 64.98V62.98ZM621.98 49.94V43.7H619.98V49.94H621.98ZM620.98 44.7H633.304V42.7H620.98V44.7ZM632.304 43.7V49.94H634.304V43.7H632.304ZM632.304 49.94C632.304 51.3805 632.694 52.6456 633.596 53.5477C634.498 54.4499 635.763 54.84 637.204 54.84V52.84C636.109 52.84 635.424 52.5476 635.01 52.1335C634.596 51.7194 634.304 51.0345 634.304 49.94H632.304ZM637.204 54.84H660.526V52.84H637.204V54.84ZM661.526 53.84V43.7H659.526V53.84H661.526ZM660.526 44.7H672.85V42.7H660.526V44.7ZM671.85 43.7V71H673.85V43.7H671.85ZM672.85 70H660.526V72H672.85V70ZM695.71 71H694.71V72H695.71V71ZM695.71 53.06H696.71V52.06H695.71V53.06ZM675.976 53.06H674.976V54.06H675.976V53.06ZM675.976 43.7V42.7H674.976V43.7H675.976ZM727.846 43.7H728.846V42.7H727.846V43.7ZM727.846 53.06V54.06H728.846V53.06H727.846ZM708.034 53.06V52.06H707.034V53.06H708.034ZM708.034 71V72H709.034V71H708.034ZM696.71 71V53.06H694.71V71H696.71ZM695.71 52.06H675.976V54.06H695.71V52.06ZM676.976 53.06V43.7H674.976V53.06H676.976ZM675.976 44.7H727.846V42.7H675.976V44.7ZM726.846 43.7V53.06H728.846V43.7H726.846ZM727.846 52.06H708.034V54.06H727.846V52.06ZM707.034 53.06V71H709.034V53.06H707.034ZM708.034 70H695.71V72H708.034V70ZM743.061 44.31H771.531V42.31H743.061V44.31ZM771.531 44.31C778.469 44.31 784.181 50.3385 784.181 57.35H786.181C786.181 49.3075 779.646 42.31 771.531 42.31V44.31ZM784.181 57.35C784.181 64.3615 778.469 70.39 771.531 70.39V72.39C779.646 72.39 786.181 65.3925 786.181 57.35H784.181ZM771.531 70.39H743.061V72.39H771.531V70.39ZM743.061 70.39C736.122 70.39 730.411 64.3615 730.411 57.35H728.411C728.411 65.3925 734.945 72.39 743.061 72.39V70.39ZM730.411 57.35C730.411 50.3385 736.122 44.31 743.061 44.31V42.31C734.945 42.31 728.411 49.3075 728.411 57.35H730.411ZM768.996 52.45H745.596V54.45H768.996V52.45ZM745.596 52.45C742.898 52.45 740.696 54.6527 740.696 57.35H742.696C742.696 55.7573 744.003 54.45 745.596 54.45V52.45ZM740.696 57.35C740.696 60.0473 742.898 62.25 745.596 62.25V60.25C744.003 60.25 742.696 58.9427 742.696 57.35H740.696ZM745.596 62.25H768.996V60.25H745.596V62.25ZM768.996 62.25C771.693 62.25 773.896 60.0473 773.896 57.35H771.896C771.896 58.9427 770.588 60.25 768.996 60.25V62.25ZM773.896 57.35C773.896 54.6527 771.693 52.45 768.996 52.45V54.45C770.588 54.45 771.896 55.7573 771.896 57.35H773.896ZM839.4 43.7H840.4V42.7H839.4V43.7ZM839.4 71V72H840.4V71H839.4ZM827.076 71H826.076V72H827.076V71ZM827.076 55.4H828.076V53.6744L826.578 54.5324L827.076 55.4ZM799.854 71V72H800.12L800.351 71.8676L799.854 71ZM787.53 71H786.53V72H787.53V71ZM787.53 43.7V42.7H786.53V43.7H787.53ZM799.854 43.7H800.854V42.7H799.854V43.7ZM799.854 59.3H798.854V61.0256L800.351 60.1676L799.854 59.3ZM827.076 43.7V42.7H826.81L826.578 42.8324L827.076 43.7ZM825.516 31.337L826.343 30.7752L825.797 29.971L824.978 30.4942L825.516 31.337ZM829.806 37.655L830.36 38.487L831.2 37.9276L830.633 37.0932L829.806 37.655ZM797.124 37.655L796.296 37.0932L795.73 37.9276L796.569 38.487L797.124 37.655ZM801.414 31.337L801.952 30.4942L801.133 29.971L800.586 30.7752L801.414 31.337ZM838.4 43.7V71H840.4V43.7H838.4ZM839.4 70H827.076V72H839.4V70ZM828.076 71V55.4H826.076V71H828.076ZM826.578 54.5324L799.357 70.1324L800.351 71.8676L827.573 56.2676L826.578 54.5324ZM799.854 70H787.53V72H799.854V70ZM788.53 71V43.7H786.53V71H788.53ZM787.53 44.7H799.854V42.7H787.53V44.7ZM798.854 43.7V59.3H800.854V43.7H798.854ZM800.351 60.1676L827.573 44.5676L826.578 42.8324L799.357 58.4324L800.351 60.1676ZM827.076 44.7H839.4V42.7H827.076V44.7ZM813.465 35.847C818.832 35.847 822.682 34.3331 826.054 32.1798L824.978 30.4942C821.876 32.4749 818.394 33.847 813.465 33.847V35.847ZM824.688 31.8987L828.978 38.2168L830.633 37.0932L826.343 30.7752L824.688 31.8987ZM829.251 36.8229C826.418 38.7117 821.658 41.53 813.465 41.53V43.53C822.197 43.53 827.344 40.4983 830.36 38.487L829.251 36.8229ZM813.465 41.53C805.271 41.53 800.512 38.7117 797.678 36.8229L796.569 38.487C799.586 40.4983 804.732 43.53 813.465 43.53V41.53ZM797.951 38.2168L802.241 31.8987L800.586 30.7752L796.296 37.0932L797.951 38.2168ZM800.876 32.1798C804.248 34.3331 808.098 35.847 813.465 35.847V33.847C808.536 33.847 805.054 32.4749 801.952 30.4942L800.876 32.1798Z" fill="white" mask="url(#path-1-outside-1_190_1447)"/>
</svg>
