<svg width="581" height="90" viewBox="0 0 581 90" fill="none" xmlns="http://www.w3.org/2000/svg">
<path d="M437.154 51.2C419.746 51.2 409.25 40.96 409.25 26.24C409.25 11.52 419.746 0 437.154 0H575.65V30.72H453.922C450.85 30.72 449.698 33.024 449.698 34.56C449.698 36.096 450.85 38.4 453.922 38.4H552.866C570.274 38.4 580.77 48.64 580.77 63.36C580.77 78.08 570.274 89.6 552.866 89.6H414.37V58.88H536.098C539.17 58.88 540.322 56.576 540.322 55.04C540.322 53.504 539.17 51.2 536.098 51.2H437.154Z" fill="white"/>
<path d="M355.41 30.72H271.698V40.96H355.41C358.994 40.96 361.042 39.04 361.042 35.84C361.042 32.64 358.994 30.72 355.41 30.72ZM271.698 89.6H231.25V0H365.65C388.05 0 401.49 17.92 401.49 35.84C401.49 53.76 388.05 71.68 365.65 71.68H271.698V89.6Z" fill="white"/>
<path d="M180.5 89.6V0H220.948V89.6H180.5Z" fill="white"/>
<path d="M64.768 89.6V30.72H0V0H170.24V30.72H105.216V89.6H64.768Z" fill="white"/>
</svg>
