<svg width="215" height="33" fill="none" xmlns="http://www.w3.org/2000/svg"><path d="M161.397 18.9c-6.392 0-10.246-3.76-10.246-9.165 0-5.405 3.854-9.635 10.246-9.635h50.854v11.28h-44.697c-1.128 0-1.551.846-1.551 1.41s.423 1.41 1.551 1.41h36.331c6.392 0 10.246 3.76 10.246 9.165 0 5.405-3.854 9.635-10.246 9.635h-50.854V21.72h44.697c1.128 0 1.551-.846 1.551-1.41s-.423-1.41-1.551-1.41h-36.331Zm-30.015-7.52h-30.738v3.76h30.738c1.316 0 2.068-.705 2.068-1.88 0-1.175-.752-1.88-2.068-1.88ZM100.644 33H85.792V.1h49.35c8.225 0 13.16 6.58 13.16 13.16s-4.935 13.16-13.16 13.16h-34.498V33Zm-33.487 0V.1H82.01V33H67.157Zm-42.495 0V11.38H.88V.1h62.51v11.28H39.514V33H24.662Z" fill="#fff"/></svg>